<?xml version="1.0" standalone="no"?>
<!DOCTYPE svg PUBLIC "-//W3C//DTD SVG 1.1//EN" "http://www.w3.org/Graphics/SVG/1.1/DTD/svg11.dtd" >
<svg>
<metadata>
Created by FontForge 20120731 at Wed Nov 27 20:53:12 2019
 By ffonts
Copyright 2017 Google Inc. All Rights Reserved.
</metadata>
<defs>
<font id="NotoSerifEthiopic-Condensed" horiz-adv-x="495" >
  <font-face 
    font-family="Noto Serif Ethiopic Cn"
    font-weight="400"
    font-stretch="condensed"
    units-per-em="1000"
    panose-1="2 2 5 6 6 5 5 2 2 4"
    ascent="800"
    descent="-200"
    bbox="-261 -107 1332 944"
    underline-thickness="50"
    underline-position="-75"
    unicode-range="U+000D-AB2E"
  />
<missing-glyph horiz-adv-x="600" 
d="M94 0v714h411v-714h-411zM145 51h309v612h-309v-612z" />
    <glyph glyph-name=".notdef" horiz-adv-x="600" 
d="M94 0v714h411v-714h-411zM145 51h309v612h-309v-612z" />
    <glyph glyph-name="NULL" horiz-adv-x="0" 
 />
    <glyph glyph-name="CR" unicode="&#xd;" horiz-adv-x="233" 
 />
    <glyph glyph-name="space" unicode=" " horiz-adv-x="233" 
 />
    <glyph glyph-name="hyphen" unicode="-" horiz-adv-x="278" 
d="M23 236v73h233v-73h-233z" />
    <glyph glyph-name="uni1200" unicode="&#x1200;" horiz-adv-x="564" 
d="M255 -12q-94 0 -131 53.5t-37 155.5q0 32 0.5 78.5t1 101t1 110.5t0.5 107q0 44 -12 58.5t-38 14.5v42l130 9q21 -28 21 -98q0 -114 -1 -228t-1 -202q0 -76 18 -115t62 -39q57 0 89 58t32 198v302q0 44 -12 58.5t-38 14.5v42l130 9q11 -15 16 -40.5t5 -57.5v-346
q0 -92 -30 -156t-83 -97t-123 -33z" />
    <glyph glyph-name="uni1201" unicode="&#x1201;" horiz-adv-x="681" 
d="M255 -12q-94 0 -131 53.5t-37 155.5q0 32 0.5 78.5t1 101t1 110.5t0.5 107q0 44 -12 58.5t-38 14.5v42l130 9q21 -28 21 -98q0 -114 -1 -228t-1 -202q0 -76 18 -115t62 -39q57 0 89 58t32 198v302q0 44 -12 58.5t-38 14.5v42l130 9q11 -15 16 -40.5t5 -57.5v-346
q0 -92 -30 -156t-83 -97t-123 -33zM634 252q-41 0 -61.5 23.5t-20.5 58.5q0 7 0.5 12.5t1.5 10.5h-129v50h240q-3 -7 -5.5 -22.5t-2.5 -33.5q0 -56 29 -83q-21 -16 -52 -16z" />
    <glyph glyph-name="uni1202" unicode="&#x1202;" horiz-adv-x="519" 
d="M175 0q-6 9 -6 29q0 29 15 71l90 256q-14 -4 -34 -6t-41 -2q-49 0 -77 21t-39.5 54t-11.5 70q0 22 2.5 55.5t2.5 58.5q0 35 -12.5 47.5t-38.5 12.5v42l129 9q22 -29 22 -83q0 -33 -2 -73t-2 -67q0 -44 17 -70t51 -26q18 0 32 2.5t21 5.5l38 114q22 62 22 99q0 47 -37 47
v42l135 9q4 -7 6.5 -19.5t2.5 -32.5q0 -26 -7 -64t-24 -90l-137 -402q-3 -10 -5 -18t-2 -15q0 -27 28 -27h66q5 26 23 45.5t54 19.5q16 0 29 -4.5t19 -9.5q-14 -16 -20.5 -34.5t-6.5 -43.5q0 -27 8.5 -45t18.5 -29q-6 -6 -19 -11t-29 -5q-36 0 -54 20t-23 47h-204z" />
    <glyph glyph-name="uni1203" unicode="&#x1203;" horiz-adv-x="497" 
d="M175 -5q-6 9 -6 32q0 32 15 74l90 255q-14 -4 -34 -6t-41 -2q-49 0 -77 21t-39.5 54t-11.5 70q0 22 2.5 55.5t2.5 58.5q0 36 -12.5 49t-38.5 13v40l129 9q22 -29 22 -83q0 -33 -2 -73t-2 -67q0 -44 17 -70t51 -26q18 0 32 2.5t21 5.5l38 114q11 31 16 56.5t5 43.5
q0 48 -36 48v40l135 9q4 -8 6.5 -21t2.5 -32q0 -26 -7 -64t-24 -89l-137 -401q-8 -24 -8 -38q0 -29 29 -29v-40z" />
    <glyph glyph-name="uni1204" unicode="&#x1204;" horiz-adv-x="532" 
d="M230 0q-19 9 -30.5 28t-11.5 50q0 34 16 81l71 197q-28 -7 -68 -7q-71 0 -103.5 36t-32.5 101q0 14 1.5 36.5t2.5 45t1 39.5q0 36 -12.5 49t-38.5 13v40l129 9q22 -29 22 -83q0 -33 -2 -76t-2 -75q0 -40 18 -62.5t54 -22.5q14 0 26.5 2t21.5 5l40 115q10 31 16 56.5
t6 43.5q0 48 -36 48v40l133 9q4 -7 7 -20t3 -33q0 -25 -6.5 -63t-24.5 -90l-102 -290h66q120 0 120 -96q0 -52 -34 -89t-98 -37h-152zM327 42h16q35 0 56.5 19t21.5 61q0 33 -14.5 47.5t-44.5 14.5h-46l-18 -53q-10 -26 -10 -45q0 -44 39 -44z" />
    <glyph glyph-name="uni1205" unicode="&#x1205;" horiz-adv-x="621" 
d="M312 -12q-94 0 -131 53.5t-37 155.5q0 35 1 76t1.5 80t0.5 68q0 34 -11 45.5t-30 11.5h-35v129q0 34 -10.5 48t-29.5 14v40l114 9q13 -12 18.5 -32t5.5 -51v-104h19q28 0 43.5 -18.5t15.5 -49.5t-0.5 -79.5t-1 -100t-0.5 -93.5q0 -76 18.5 -115t61.5 -39q58 0 90 58
t32 198v302q0 44 -12 58.5t-39 14.5v42l130 9q12 -15 17 -40.5t5 -57.5v-353q0 -139 -65.5 -209t-170.5 -70z" />
    <glyph glyph-name="uni1206" unicode="&#x1206;" horiz-adv-x="713" 
d="M255 -12q-94 0 -131 54t-37 156q0 32 0.5 78t1 100.5t1 110.5t0.5 107q0 44 -12 58.5t-38 14.5v42l130 9q21 -28 21 -98q0 -114 -1 -228t-1 -202q0 -75 18 -114.5t62 -39.5q57 0 89 58t32 198v417h196q119 0 119 -96q0 -52 -33.5 -89t-98.5 -37h-50q-16 0 -32 8v-227
q0 -140 -65.5 -210t-170.5 -70zM546 522q66 0 66 87q0 33 -14.5 47.5t-44.5 14.5h-62v-64q0 -47 13.5 -66t41.5 -19z" />
    <glyph glyph-name="uni1207" unicode="&#x1207;" horiz-adv-x="832" 
d="M374 -12q-94 0 -131 54t-37 156q0 32 0.5 78t1 100.5t1 110.5t0.5 107q0 44 -12 58.5t-38 14.5v42l130 9q21 -28 21 -98q0 -114 -1 -228t-1 -202q0 -75 18 -114.5t62 -39.5q57 0 89 58t32 198v417h196q119 0 119 -96q0 -52 -33.5 -89t-98.5 -37h-50q-16 0 -32 8v-227
q0 -140 -65.5 -210t-170.5 -70zM665 522q66 0 66 87q0 33 -14.5 47.5t-44.5 14.5h-62v-64q0 -47 13.5 -66t41.5 -19zM48 235q-15 0 -28 5t-20 11q11 11 19 29t8 45q0 25 -7 43.5t-20 34.5q7 5 20 9.5t28 4.5q36 0 54.5 -19.5t23.5 -45.5h124v-50h-124q-5 -27 -23.5 -47
t-54.5 -20z" />
    <glyph glyph-name="uni1208" unicode="&#x1208;" horiz-adv-x="604" 
d="M106 -4q-17 20 -31.5 56t-14.5 98q0 118 52 225t147 186l-51 153h103l188 -574q16 -49 34 -71t49 -22v-42l-114 -9q-17 15 -32 42t-32 81l-120 377q-61 -68 -91 -150t-30 -183q0 -55 17 -84.5t45 -31.5v-42z" />
    <glyph glyph-name="uni1209" unicode="&#x1209;" horiz-adv-x="678" 
d="M106 -4q-17 20 -31.5 56t-14.5 98q0 118 52 225t147 186l-51 153h103l188 -574q16 -49 34 -71t49 -22v-42l-114 -9q-17 15 -32 42t-32 81l-120 377q-61 -68 -91 -150t-30 -183q0 -55 17 -84.5t45 -31.5v-42zM621 212q-41 0 -61.5 23.5t-20.5 58.5q0 7 0.5 12.5t1.5 10.5
h-129v50h240q-3 -7 -5.5 -22.5t-2.5 -33.5q0 -56 29 -83q-21 -16 -52 -16z" />
    <glyph glyph-name="uni120A" unicode="&#x120a;" horiz-adv-x="779" 
d="M106 -4q-17 20 -31.5 56t-14.5 98q0 118 52 225t147 186l-51 153h106l188 -574q16 -49 33 -69.5t46 -20.5h58q5 26 23 45.5t54 19.5q16 0 29 -4.5t19 -9.5q-14 -16 -20.5 -34.5t-6.5 -43.5q0 -27 8.5 -45t18.5 -29q-6 -6 -19 -11t-29 -5q-36 0 -54 20t-23 47h-173
q-17 15 -31 40t-31 79l-120 377q-61 -68 -91 -150t-30 -183q0 -55 17 -84.5t45 -31.5v-42z" />
    <glyph glyph-name="uni120B" unicode="&#x120b;" horiz-adv-x="589" 
d="M452 -4q-17 15 -32 42t-32 81l-120 377q-56 -32 -88.5 -77t-32.5 -108q0 -47 16.5 -70t43.5 -25v-42l-117 -9q-18 20 -32 53.5t-14 80.5q0 84 52.5 148t146.5 114l-51 153h105l188 -574q17 -49 34.5 -71t48.5 -22v-42z" />
    <glyph glyph-name="uni120C" unicode="&#x120c;" horiz-adv-x="719" 
d="M106 -4q-17 20 -31.5 56t-14.5 98q0 118 52 225t147 186l-51 153h106l160 -492h116q111 0 111 -96q0 -52 -31 -89t-89 -37h-88q-32 0 -52 32.5t-37 86.5l-120 377q-61 -68 -91 -150t-30 -183q0 -55 17 -84.5t45 -31.5v-42zM564 42q25 0 35.5 21.5t10.5 53.5
q0 36 -14 51.5t-39 15.5h-71l17 -54q17 -52 28 -70t33 -18z" />
    <glyph glyph-name="uni120D" unicode="&#x120d;" horiz-adv-x="626" 
d="M489 -4q-18 15 -33 42t-32 81l-117 377q-117 -105 -139 -274h66q111 0 111 -96q0 -52 -31 -89t-89 -37h-92q-19 6 -35.5 22t-27 46t-10.5 82q0 126 57.5 234t161.5 177l-52 153h107l188 -574q16 -49 33.5 -71t48.5 -22v-42zM206 35q26 0 37 22.5t11 64.5q0 33 -14 47.5
t-35 14.5h-43q-1 -10 -1 -20v-20q0 -46 7.5 -69t17.5 -31.5t20 -8.5z" />
    <glyph glyph-name="uni120E" unicode="&#x120e;" horiz-adv-x="814" 
d="M106 -4q-17 20 -31.5 56t-14.5 98q0 118 52 225t147 186l-51 153h103l188 -574q16 -49 34 -71t49 -22v-42l-114 -9q-17 15 -32 42t-32 81l-120 377q-61 -68 -91 -150t-30 -183q0 -55 17 -84.5t45 -31.5v-42zM600 257q-37 0 -58 28t-21 72q0 18 3 34h-152v50h170
q15 22 39.5 34t59.5 12h73q47 0 69.5 -27t22.5 -76q0 -33 -12.5 -62t-35 -47t-51.5 -18h-107zM656 292q32 0 48.5 26.5t16.5 64.5q0 31 -13.5 48.5t-38.5 17.5q-29 0 -46 -24t-17 -66q0 -30 13 -48.5t37 -18.5z" />
    <glyph glyph-name="uni120F" unicode="&#x120f;" horiz-adv-x="730" 
d="M216 -105q-30 0 -49 16q28 28 28 83q0 18 -3 33.5t-5 22.5h222l-139 446q-56 -32 -89.5 -77t-33.5 -108q0 -47 16.5 -70t43.5 -25v-42l-117 -9q-18 20 -32 53.5t-14 80.5q0 84 52.5 148t146.5 114l-53 153h107l219 -664h178q-2 -7 -4.5 -22.5t-2.5 -33.5q0 -57 28 -83
q-19 -16 -49 -16q-38 0 -58 23.5t-20 58.5v12.5t1 10.5h-297q1 -5 1.5 -10.5t0.5 -12.5q0 -35 -20 -58.5t-58 -23.5z" />
    <glyph glyph-name="uni1210" unicode="&#x1210;" horiz-adv-x="728" 
d="M82 -5q-9 15 -17 44.5t-8 81.5q0 130 60.5 215t192.5 103v171q0 59 -40 59v40l114 9q11 -8 17.5 -28t6.5 -43v-205q98 -4 151.5 -32.5t75 -74t21.5 -100.5q0 -20 -1 -53t-1 -53q0 -50 11.5 -66.5t36.5 -18.5v-40l-125 -9q-19 29 -19 86q0 22 0.5 50t1 55.5t0.5 45.5
q0 68 -32.5 111t-119.5 50v-282q0 -41 11 -54t31 -13v-40l-116 -9q-11 13 -17.5 31t-6.5 47v317q-85 -16 -120.5 -81t-35.5 -180q0 -48 12 -66t38 -19v-40z" />
    <glyph glyph-name="uni1211" unicode="&#x1211;" horiz-adv-x="879" 
d="M82 -5q-9 15 -17 44.5t-8 81.5q0 130 60.5 215t192.5 103v171q0 59 -40 59v40l114 9q11 -8 17.5 -28t6.5 -43v-205q98 -4 151.5 -32.5t75 -74t21.5 -100.5q0 -20 -1 -53t-1 -53q0 -50 11.5 -66.5t36.5 -18.5v-40l-125 -9q-19 29 -19 86q0 22 0.5 50t1 55.5t0.5 45.5
q0 68 -32.5 111t-119.5 50v-282q0 -41 11 -54t31 -13v-40l-116 -9q-11 13 -17.5 31t-6.5 47v317q-85 -16 -120.5 -81t-35.5 -180q0 -48 12 -66t38 -19v-40zM812 130q-41 0 -61.5 23.5t-20.5 58.5q0 7 0.5 12.5t1.5 10.5h-129v50h240q-3 -7 -5.5 -22.5t-2.5 -33.5
q0 -56 29 -83q-21 -16 -52 -16z" />
    <glyph glyph-name="uni1212" unicode="&#x1212;" horiz-adv-x="908" 
d="M82 -5q-9 15 -17 44.5t-8 81.5q0 130 60.5 215t192.5 103v171q0 59 -40 59v40l114 9q11 -8 17.5 -28t6.5 -43v-205q98 -4 151.5 -32.5t75 -74t21.5 -100.5q0 -20 -1 -53t-1 -53q0 -47 11.5 -63t36.5 -16h66q4 26 22.5 45.5t54.5 19.5q16 0 29 -4.5t19 -9.5
q-13 -16 -20 -34.5t-7 -43.5q0 -27 8 -45t19 -29q-6 -6 -19 -11t-29 -5q-36 0 -54 20t-23 47h-194q-8 14 -12 33t-4 48q0 22 0.5 50t1 55.5t0.5 45.5q0 68 -32.5 111t-119.5 50v-282q0 -41 11 -54t31 -13v-40l-116 -9q-11 13 -17.5 31t-6.5 47v317q-85 -16 -120.5 -81
t-35.5 -180q0 -48 12 -66t38 -19v-40z" />
    <glyph glyph-name="uni1213" unicode="&#x1213;" horiz-adv-x="696" 
d="M544 -5q-18 29 -18 86v50t0.5 55.5t0.5 45.5q0 69 -31.5 111.5t-114.5 50.5v-136q0 -40 11.5 -53.5t30.5 -13.5v-39l-116 -9q-11 13 -18 31t-7 47v171q-77 -10 -111.5 -50t-34.5 -95q0 -23 13 -37t38 -15v-42l-133 -9q-6 16 -10.5 32t-4.5 43q0 53 26.5 100.5t80.5 79.5
t136 41v171q0 59 -40 59v39l114 9q11 -8 18 -28t7 -43v-205q95 -4 148 -32.5t74 -74t21 -100.5q0 -20 -1 -53t-1 -53q0 -48 11 -64.5t37 -17.5v-43z" />
    <glyph glyph-name="uni1214" unicode="&#x1214;" horiz-adv-x="887" 
d="M82 -5q-9 15 -17 44.5t-8 81.5q0 131 61 216t192 102v171q0 59 -40 59v40l114 9q11 -8 17.5 -28t6.5 -43v-205q129 -6 187.5 -59.5t59.5 -160.5h95q119 0 119 -96q0 -52 -34 -89t-98 -37h-89q-44 10 -66.5 36t-22.5 77v119q0 67 -34 109.5t-117 51.5v-282q0 -41 11 -54
t31 -13v-40l-116 -9q-11 13 -17.5 31t-6.5 47v317q-84 -15 -120 -80t-36 -181q0 -48 12 -66t38 -19v-40zM709 35q67 0 67 87q0 33 -14.5 47.5t-45.5 14.5h-61v-64q0 -47 14 -66t40 -19z" />
    <glyph glyph-name="uni1215" unicode="&#x1215;" horiz-adv-x="728" 
d="M82 -5q-9 15 -17 44.5t-8 81.5q0 131 61.5 216t195.5 102v171q0 58 -40 58h-160q8 16 8 56q0 56 -29 82q21 16 52 16q41 0 61.5 -24t20.5 -58q0 -6 -0.5 -12t-0.5 -10h162q11 -9 18 -29t7 -43v-204q95 -4 148 -33t74 -74.5t21 -99.5q0 -20 -1 -53t-1 -53
q0 -50 11.5 -66.5t36.5 -18.5v-40l-125 -9q-19 29 -19 86q0 22 0.5 50t1 55.5t0.5 45.5q0 68 -31.5 110t-115.5 51v-282q0 -41 11 -54t31 -13v-40l-116 -9q-11 13 -18 31t-7 47v318q-87 -16 -123.5 -81t-36.5 -181q0 -48 12 -66t38 -19v-40z" />
    <glyph glyph-name="uni1216" unicode="&#x1216;" horiz-adv-x="714" 
d="M82 -5q-9 15 -17 44.5t-8 81.5q0 137 64 219t188 99v172q0 59 -39 59v39l113 9q11 -8 18 -28t7 -43v-205q92 -4 144.5 -31t75 -67t22.5 -84v-25q0 -23 10.5 -31t35.5 -10v-43l-129 -9q-8 14 -11.5 31t-3.5 39v41q0 60 -33 97t-111 44v-136q0 -40 11 -53.5t31 -13.5v-40
l-116 -9q-11 13 -18 31.5t-7 47.5v169q-82 -16 -118.5 -80.5t-36.5 -172.5q0 -52 12 -70.5t38 -19.5v-43z" />
    <glyph glyph-name="uni1217" unicode="&#x1217;" horiz-adv-x="858" 
d="M344 -105q-30 0 -49 16q28 28 28 83q0 18 -3 33.5t-5 22.5h213q-2 13 -2 31v50t0.5 55.5t0.5 45.5q0 69 -31.5 111.5t-114.5 50.5v-136q0 -40 11.5 -53.5t30.5 -13.5v-39l-116 -9q-11 13 -18 31t-7 47v171q-77 -10 -111.5 -50t-34.5 -95q0 -23 13 -37t38 -15v-42l-133 -9
q-6 16 -10.5 32t-4.5 43q0 53 26.5 100.5t80.5 79.5t136 41v171q0 59 -40 59v39l114 9q11 -8 18 -28t7 -43v-205q95 -4 148 -32.5t74 -74t21 -100.5q0 -20 -1 -53t-1 -53q0 -48 11 -63t37 -16h152q-2 -7 -4.5 -22.5t-2.5 -33.5q0 -57 28 -83q-19 -16 -49 -16q-38 0 -58 23.5
t-20 58.5v12.5t1 10.5h-297q1 -5 1.5 -10.5t0.5 -12.5q0 -35 -20 -58.5t-58 -23.5z" />
    <glyph glyph-name="uni1218" unicode="&#x1218;" horiz-adv-x="846" 
d="M230 134q-89 0 -138.5 71.5t-49.5 199.5q0 61 15.5 116.5t46 99t75.5 68.5t104 25h330q88 0 142 -60t54 -182q0 -83 -23.5 -146t-68.5 -98t-109 -35h-126v472h-93v-483q-24 -15 -64.5 -31.5t-94.5 -16.5zM246 186q28 0 48 14v465h-12q-63 0 -103 -66t-40 -185
q0 -120 30.5 -174t76.5 -54zM576 241h24q44 0 68 31t34 81.5t10 107.5t-10.5 103.5t-34 73.5t-61.5 27h-30v-424z" />
    <glyph glyph-name="uni1219" unicode="&#x1219;" horiz-adv-x="1029" 
d="M230 134q-89 0 -138.5 71.5t-49.5 199.5q0 61 15.5 116.5t46 99t75.5 68.5t104 25h330q88 0 142 -60t54 -182q0 -83 -23.5 -146t-68.5 -98t-109 -35h-126v472h-93v-483q-24 -15 -64.5 -31.5t-94.5 -16.5zM246 186q28 0 48 14v465h-12q-63 0 -103 -66t-40 -185
q0 -120 30.5 -174t76.5 -54zM576 241h24q44 0 68 31t34 81.5t10 107.5t-10.5 103.5t-34 73.5t-61.5 27h-30v-424zM976 371q-36 0 -54 20t-23 47h-125v50h125q5 26 23 45.5t54 19.5q16 0 29 -4.5t19 -9.5q-14 -16 -20.5 -34.5t-6.5 -43.5q0 -27 8.5 -45t18.5 -29
q-6 -6 -19 -11t-29 -5z" />
    <glyph glyph-name="uni121A" unicode="&#x121a;" horiz-adv-x="853" 
d="M516 0l-4.5 18t-2.5 23q0 18 5.5 39t15.5 52l80 230h-37q-71 0 -103 36t-32 109q0 24 3.5 68t10.5 90h-84v-311q-30 -31 -75 -52.5t-99 -21.5q-79 0 -124 50.5t-45 146.5q0 109 59 173t166 64h356q157 0 157 -135q0 -24 -4.5 -49.5t-14.5 -60t-28 -84.5l-86 -248
q-15 -41 -15 -61q0 -26 35 -26h63q5 26 23 45.5t54 19.5q16 0 29 -4.5t19 -9.5q-14 -16 -20.5 -34.5t-6.5 -43.5q0 -27 8.5 -45t18.5 -29q-6 -6 -19 -11t-29 -5q-36 0 -54 20t-23 47h-197zM206 331q24 0 40 6.5t26 14.5v313h-20q-62 0 -97.5 -49t-35.5 -141q0 -144 87 -144z
M615 410h12l25 73q17 49 17 96q0 46 -19 66t-54 20h-54q-7 -49 -10 -86.5t-3 -64.5q0 -58 16.5 -81t69.5 -23z" />
    <glyph glyph-name="uni121B" unicode="&#x121b;" horiz-adv-x="800" 
d="M515 -5q-3 7 -5 18t-2 25q0 19 5.5 40.5t16.5 53.5l80 230h-37q-71 0 -103 36t-32 109q0 24 3.5 68t10.5 90h-84v-311q-30 -31 -75 -52.5t-99 -21.5q-79 0 -124 50.5t-45 146.5q0 109 59 173t166 64h356q157 0 157 -134q0 -24 -4.5 -50t-14.5 -60.5t-28 -84.5l-86 -248
q-15 -42 -15 -63q0 -32 35 -32v-38zM206 331q24 0 40 6.5t26 14.5v313h-20q-62 0 -97.5 -49t-35.5 -141q0 -144 87 -144zM615 410h12l23 64q9 28 14.5 56.5t5.5 54.5q0 39 -19.5 59.5t-54.5 20.5h-54q-7 -49 -10 -86.5t-3 -64.5q0 -58 16.5 -81t69.5 -23z" />
    <glyph glyph-name="uni121C" unicode="&#x121c;" horiz-adv-x="862" 
d="M568 0q-20 9 -33 28.5t-13 50.5q0 18 4.5 37t12.5 43l71 203h-37q-71 0 -103 36t-32 109q0 24 3.5 68t10.5 90h-84v-311q-30 -31 -75 -52.5t-99 -21.5q-79 0 -124 50.5t-45 146.5q0 109 59 173t166 64h356q157 0 157 -135q0 -24 -4.5 -49.5t-15 -60t-27.5 -84.5l-56 -163
h65q119 0 119 -96q0 -52 -34 -89t-98 -37h-144zM206 331q24 0 40 6.5t26 14.5v313h-20q-62 0 -97.5 -49t-35.5 -141q0 -144 87 -144zM615 410h12l25 73q17 49 17 96q0 46 -19 66t-54 20h-54q-7 -49 -10 -86.5t-3 -64.5q0 -58 16.5 -81t69.5 -23zM655 42h19q34 0 56 19t22 61
q0 33 -15 47.5t-45 14.5h-46l-18 -54q-10 -26 -10 -50q0 -16 9 -27t28 -11z" />
    <glyph glyph-name="uni121D" unicode="&#x121d;" horiz-adv-x="793" 
d="M189 -5q-6 18 -6 40q0 18 4.5 40.5t15.5 53.5l55 158q-15 -3 -31 -5t-34 -2q-74 0 -121 50.5t-47 146.5q0 109 59.5 173t165.5 64h350q85 0 128.5 -46t43.5 -120q0 -53 -17.5 -95t-55 -66t-96.5 -24h-150v301h-85v-333l-68 -200q-13 -36 -13 -58q0 -31 35 -31v-38z
M212 331q20 0 34 4t26 10v319h-19q-61 0 -97.5 -48.5t-36.5 -140.5q0 -144 93 -144zM550 413h41q32 0 50.5 19t26 49t7.5 62q0 28 -7 56t-24 46.5t-47 18.5h-47v-251z" />
    <glyph glyph-name="uni121E" unicode="&#x121e;" horiz-adv-x="793" 
d="M297 -5q-11 13 -18 31t-7 47v217q-16 -5 -34 -7.5t-38 -2.5q-82 0 -128.5 50.5t-46.5 146.5q0 109 59.5 173t165.5 64h344q89 0 133.5 -46t44.5 -120q0 -53 -18 -95t-57 -66t-101 -24h-143v301h-85v-554q0 -40 11 -53.5t31 -13.5v-39zM212 331q20 0 34 4t26 10v319h-19
q-61 0 -97.5 -48.5t-36.5 -140.5q0 -144 93 -144zM550 413h34q36 0 55.5 19t27.5 49t8 62q0 28 -7.5 56t-25.5 46.5t-52 18.5h-40v-251z" />
    <glyph glyph-name="uni121F" unicode="&#x121f;" horiz-adv-x="850" 
d="M336 -105q-30 0 -49 16q28 28 28 83q0 18 -3 33.5t-5 22.5h201q2 16 7 35.5t15 46.5l80 230h-37q-71 0 -103 36t-32 109q0 24 3.5 68t10.5 90h-84v-311q-30 -31 -75 -52.5t-99 -21.5q-79 0 -124 50.5t-45 146.5q0 109 59 173t166 64h356q157 0 157 -134q0 -24 -4.5 -50
t-14.5 -60.5t-28 -84.5l-86 -248q-14 -38 -14 -60q0 -27 34 -27h164q-2 -7 -4.5 -22.5t-2.5 -33.5q0 -57 28 -83q-19 -16 -49 -16q-38 0 -58 23.5t-20 58.5v12.5t1 10.5h-297q1 -5 1.5 -10.5t0.5 -12.5q0 -35 -20 -58.5t-58 -23.5zM206 331q24 0 40 6.5t26 14.5v313h-20
q-62 0 -97.5 -49t-35.5 -141q0 -144 87 -144zM615 410h12l23 64q9 28 14.5 56.5t5.5 54.5q0 39 -19.5 59.5t-54.5 20.5h-54q-7 -49 -10 -86.5t-3 -64.5q0 -58 16.5 -81t69.5 -23z" />
    <glyph glyph-name="uni1220" unicode="&#x1220;" horiz-adv-x="795" 
d="M251 -5q-69 0 -105.5 25.5t-50.5 72t-14 108.5q0 42 0.5 95t0.5 108.5t0.5 107.5t0.5 93t-11 54t-32 13v39l119 9q11 -13 17 -31.5t6 -46.5q0 -59 -0.5 -139t-1 -167t-0.5 -166q0 -34 7 -61.5t25.5 -44t52.5 -16.5q49 0 69 39.5t20 92.5v425q0 41 -11 54t-32 13v39l119 9
q11 -13 17 -31.5t6 -46.5v-370q0 -64 18.5 -91t61.5 -27q52 0 71 46t19 123v282q0 41 -11 54t-32 13v39l119 9q11 -13 17 -31.5t6 -46.5v-305q0 -65 -22 -118t-65 -84t-106 -31q-43 0 -69.5 11t-38.5 23q-8 -37 -26.5 -69.5t-53.5 -53t-90 -20.5z" />
    <glyph glyph-name="uni1221" unicode="&#x1221;" horiz-adv-x="942" 
d="M251 -5q-69 0 -105.5 25.5t-50.5 72t-14 108.5q0 42 0.5 95t0.5 108.5t0.5 107.5t0.5 93t-11 54t-32 13v39l119 9q11 -13 17 -31.5t6 -46.5q0 -59 -0.5 -139t-1 -167t-0.5 -166q0 -34 7 -61.5t25.5 -44t52.5 -16.5q49 0 69 39.5t20 92.5v425q0 41 -11 54t-32 13v39l119 9
q11 -13 17 -31.5t6 -46.5v-370q0 -64 18.5 -91t61.5 -27q52 0 71 46t19 123v282q0 41 -11 54t-32 13v39l119 9q11 -13 17 -31.5t6 -46.5v-305q0 -65 -22 -118t-65 -84t-106 -31q-43 0 -69.5 11t-38.5 23q-8 -37 -26.5 -69.5t-53.5 -53t-90 -20.5zM889 317q-36 0 -54 20
t-23 47h-125v50h125q5 26 23 45.5t54 19.5q16 0 29 -4.5t19 -9.5q-14 -16 -20.5 -34.5t-6.5 -43.5q0 -27 8.5 -45t18.5 -29q-6 -6 -19 -11t-29 -5z" />
    <glyph glyph-name="uni1222" unicode="&#x1222;" horiz-adv-x="795" 
d="M447 0q-5 17 -5 31q0 17 4 40t14 58l74 246q-18 -5 -36 -5q-35 0 -59.5 11t-36.5 23q-8 -37 -26.5 -69.5t-51 -53t-82.5 -20.5q-64 0 -99 27t-48.5 72.5t-13.5 101.5q0 14 0.5 43t1 57.5t0.5 42.5q0 41 -11 54t-32 13v39l119 9q11 -13 17 -31.5t6 -46.5q0 -19 -0.5 -53.5
t-1 -71t-0.5 -60.5q0 -61 15.5 -102t59.5 -41q42 0 61 39.5t19 103.5v148q0 41 -11 54t-32 13v39l119 9q11 -13 17.5 -31.5t6.5 -46.5v-83q0 -78 17 -108.5t52 -30.5q30 0 48 22t25.5 59t7.5 83v21q0 41 -11 54t-32 13v39l119 9q11 -13 17 -31.5t6 -46.5v-30q0 -35 -5 -66
t-13 -58l-111 -356q-11 -35 -11 -52q0 -30 33 -30h78q5 26 23 45.5t54 19.5q16 0 29 -4.5t19 -9.5q-14 -16 -20.5 -34.5t-6.5 -43.5q0 -27 8.5 -45t18.5 -29q-6 -6 -19 -11t-29 -5q-36 0 -54 20t-23 47h-208z" />
    <glyph glyph-name="uni1223" unicode="&#x1223;" horiz-adv-x="722" 
d="M242 261q-64 0 -99 25t-48.5 67.5t-13.5 94.5q0 10 0.5 31.5t0.5 46.5t0.5 46.5t0.5 32.5q0 41 -11 54t-32 13v39l119 9q11 -13 17 -31.5t6 -46.5q0 -14 -0.5 -40.5t-0.5 -56.5t-0.5 -57.5t-0.5 -43.5q0 -54 15.5 -92t59.5 -38q42 0 61 36.5t19 93.5v161q0 41 -11 54
t-32 13v39l119 9q11 -13 17.5 -31.5t6.5 -46.5v-103q0 -71 17 -99t52 -28q30 0 48 20.5t25.5 54.5t7.5 75v43q0 41 -11 54t-32 13v39l119 9q11 -13 17 -31.5t6 -46.5v-48q0 -53 -13 -96v0l-113 -367q-12 -37 -12 -58q0 -17 8.5 -24t25.5 -7v-38l-127 -9q-2 8 -3.5 17.5
t-1.5 19.5q0 18 4.5 41t13.5 56l73 237q-20 -4 -41 -4q-36 0 -59.5 10.5t-36.5 21.5q-8 -34 -26.5 -64.5t-51 -49.5t-82.5 -19z" />
    <glyph glyph-name="uni1224" unicode="&#x1224;" horiz-adv-x="774" 
d="M242 261q-64 0 -99 25t-48.5 67.5t-13.5 94.5q0 10 0.5 31.5t0.5 46.5t0.5 46.5t0.5 32.5q0 41 -11 54t-32 13v39l119 9q11 -13 17 -31.5t6 -46.5q0 -14 -0.5 -40.5t-0.5 -56.5t-0.5 -57.5t-0.5 -43.5q0 -54 15.5 -92t59.5 -38q42 0 61 36.5t19 93.5v161q0 41 -11 54
t-32 13v39l119 9q11 -13 17.5 -31.5t6.5 -46.5v-103q0 -71 17 -99t52 -28q30 0 48 20.5t25.5 54.5t7.5 75v43q0 41 -11 54t-32 13v39l119 9q11 -13 17 -31.5t6 -46.5v-48q0 -84 -33 -142l-76 -230h63q118 0 118 -96q0 -52 -33.5 -89t-97.5 -37h-145q-19 9 -30.5 28t-11.5 50
q0 34 16 81l69 205q-12 -2 -25 -2q-36 0 -59.5 10.5t-36.5 21.5q-8 -34 -26.5 -64.5t-51 -49.5t-82.5 -19zM569 42h17q35 0 56.5 19t21.5 61q0 33 -14.5 47.5t-45.5 14.5h-44l-20 -53q-9 -27 -9 -45q0 -44 38 -44z" />
    <glyph glyph-name="uni1225" unicode="&#x1225;" horiz-adv-x="811" 
d="M35 -5q-3 7 -4 15.5t-1 18.5q0 37 23 100l102 282q-2 17 -2 37q0 10 0.5 31.5t0.5 46.5t0.5 46.5t0.5 32.5q0 41 -11 54t-32 13v39l119 9q11 -13 17 -31.5t6 -46.5q0 -14 -0.5 -40.5t-0.5 -56.5t-0.5 -57.5t-0.5 -43.5q0 -54 15.5 -92t59.5 -38q42 0 61 36.5t19 93.5v161
q0 41 -11 54t-32 13v39l119 9q11 -13 17.5 -31.5t6.5 -46.5v-103q0 -71 17 -99t52 -28q30 0 48 20.5t25.5 54.5t7.5 75v43q0 41 -11 54t-32 13v39l119 9q11 -13 17 -31.5t6 -46.5v-48q0 -105 -50 -168.5t-136 -63.5q-36 0 -59.5 10.5t-36.5 21.5q-8 -34 -26.5 -64.5
t-51 -49.5t-82.5 -19q-37 0 -64 9t-45 25l-58 -164q-7 -20 -10.5 -34.5t-3.5 -25.5q0 -29 32 -29v-38z" />
    <glyph glyph-name="uni1226" unicode="&#x1226;" horiz-adv-x="739" 
d="M235 -5q-3 9 -5 18.5t-2 21.5q0 17 5 40.5t15 53.5l47 139q-24 -7 -53 -7q-64 0 -99 25t-48.5 67.5t-13.5 94.5q0 10 0.5 31.5t0.5 46.5t0.5 46.5t0.5 32.5q0 41 -11 54t-32 13v39l119 9q11 -13 17 -31.5t6 -46.5q0 -14 -0.5 -40.5t-0.5 -56.5t-0.5 -57.5t-0.5 -43.5
q0 -54 15.5 -92t59.5 -38q42 0 61 36.5t19 93.5v161q0 41 -11 54t-32 13v39l119 9q11 -13 17.5 -31.5t6.5 -46.5v-103q0 -71 17 -99t52 -28q30 0 48 20.5t25.5 54.5t7.5 75v43q0 41 -11 54t-32 13v39l119 9q11 -13 17 -31.5t6 -46.5v-48q0 -105 -50 -168.5t-136 -63.5
q-25 0 -44 5.5t-33 12.5l-81 -249q-12 -37 -12 -58q0 -31 34 -31v-38z" />
    <glyph glyph-name="uni1227" unicode="&#x1227;" horiz-adv-x="788" 
d="M274 -105q-30 0 -49 16q28 28 28 83q0 18 -3 33.5t-5 22.5h204q1 15 5.5 33.5t12.5 45.5l72 238q-22 -5 -41 -5q-36 0 -59.5 10.5t-36.5 21.5q-8 -34 -26.5 -64.5t-51 -49.5t-82.5 -19q-64 0 -98.5 25t-48 67.5t-13.5 95.5v156q0 41 -10.5 54t-31.5 13v39l119 9
q11 -13 17 -31.5t6 -46.5q0 -44 -0.5 -98t-0.5 -100q0 -54 15 -92t59 -38q42 0 61 36.5t19 93.5v161q0 41 -11 54t-32 13v39l119 9q11 -13 17.5 -31.5t6.5 -46.5v-103q0 -71 17 -99t52 -28q30 0 48 20.5t25.5 54.5t7.5 75v43q0 41 -11 54t-32 13v39l119 9q11 -13 17 -31.5
t6 -46.5v-48q0 -59 -17 -108l-109 -355q-6 -17 -8.5 -29.5t-2.5 -22.5q0 -29 33 -29h172q-2 -7 -4.5 -22.5t-2.5 -33.5q0 -57 28 -83q-19 -16 -49 -16q-38 0 -58 23.5t-20 58.5v12.5t1 10.5h-297q1 -5 1.5 -10.5t0.5 -12.5q0 -35 -20 -58.5t-58 -23.5z" />
    <glyph glyph-name="uni1228" unicode="&#x1228;" horiz-adv-x="486" 
d="M251 0q-97 0 -153.5 46.5t-56.5 145.5q0 58 19.5 104t53 86t74.5 80q44 42 70 70t37 48.5t11 41.5q0 48 -44 48v39l121 9q7 -11 13 -29t6 -43q0 -44 -16 -78.5t-46 -69t-73 -75.5q-47 -44 -76 -79t-42.5 -72t-13.5 -87q0 -59 30.5 -97t94.5 -38h79q5 26 23 45.5t54 19.5
q16 0 29 -4.5t20 -9.5q-14 -16 -21 -34.5t-7 -43.5q0 -27 8.5 -45t19.5 -29q-7 -6 -20 -11t-29 -5q-36 0 -54 20t-23 47h-88z" />
    <glyph glyph-name="uni1229" unicode="&#x1229;" horiz-adv-x="561" 
d="M264 -5q-12 15 -17 41t-5 57v104h-50q-94 0 -135 36.5t-41 100.5q0 40 13.5 69.5t40 55t65.5 56.5q53 41 75.5 66t22.5 52q0 17 -11.5 27t-51.5 12v37l140 9q12 -15 16.5 -32.5t4.5 -39.5q0 -46 -33 -88.5t-98 -94.5q-46 -37 -69 -64t-23 -70q0 -45 26 -63.5t70 -18.5
h321q-3 -7 -5.5 -22.5t-2.5 -33.5q0 -56 29 -83q-21 -16 -52 -16q-40 0 -61 24t-21 58q0 7 0.5 12.5t1.5 10.5h-75v-78q0 -44 12.5 -58.5t38.5 -14.5v-42z" />
    <glyph glyph-name="uni122A" unicode="&#x122a;" horiz-adv-x="481" 
d="M245 0q-101 0 -152.5 47.5t-51.5 150.5q0 56 20 102.5t53 87t73 78.5q46 44 71.5 72.5t36 49t10.5 40.5t-9.5 29.5t-35.5 9.5v42l122 9q8 -11 13.5 -29t5.5 -43q0 -40 -14.5 -73t-44.5 -67t-76 -77q-48 -45 -76.5 -81.5t-41 -73t-12.5 -84.5q0 -63 25.5 -101.5
t86.5 -38.5q57 0 87 36.5t30 104.5q0 29 -11 39.5t-37 10.5v42l123 9q6 -11 11 -33.5t5 -47.5q0 -55 -22 -103t-68.5 -78t-120.5 -30z" />
    <glyph glyph-name="uni122B" unicode="&#x122b;" horiz-adv-x="610" 
d="M240 0q-98 0 -148.5 47.5t-50.5 150.5q0 56 20 102.5t53 87t73 78.5q46 44 71.5 72.5t36 49t10.5 40.5t-9.5 29.5t-35.5 9.5v42l122 9q8 -11 13.5 -29t5.5 -43q0 -40 -14.5 -73t-44.5 -67t-76 -77q-48 -45 -76.5 -81t-41 -72t-12.5 -82q0 -40 10.5 -73t34.5 -53t65 -20
h11q1 260 189 260h130q-2 -8 -4.5 -22t-2.5 -30q0 -55 26 -84q-9 -6 -21.5 -10t-27.5 -4q-39 0 -59.5 23.5t-20.5 56.5v11t1 10h-13q-40 0 -62 -30.5t-30.5 -83.5t-8.5 -118v-27h-113z" />
    <glyph glyph-name="uni122C" unicode="&#x122c;" horiz-adv-x="565" 
d="M251 0q-97 0 -153.5 46.5t-56.5 145.5q0 58 19.5 104t53 86t74.5 80q44 42 70 70t37 48.5t11 41.5q0 48 -44 48v39l121 9q7 -11 13 -29t6 -43q0 -44 -16 -78.5t-46 -69t-73 -75.5q-47 -44 -76 -79t-42.5 -72t-13.5 -87q0 -59 30.5 -97t92.5 -38q-9 22 -9 50q0 59 31 94.5
t95 35.5h75q50 0 73.5 -27t23.5 -76q0 -53 -30 -90t-81 -37h-185zM391 35q32 0 49.5 26.5t17.5 64.5q0 30 -13.5 48t-40.5 18q-31 0 -48.5 -24.5t-17.5 -65.5q0 -30 14 -48.5t39 -18.5z" />
    <glyph glyph-name="uni122D" unicode="&#x122d;" horiz-adv-x="512" 
d="M446 -66q-35 0 -53.5 20t-22.5 46h-84q-118 0 -172.5 53.5t-54.5 182.5v128q0 114 34.5 192t95.5 118t141 40h148q-2 -8 -4.5 -22t-2.5 -31q0 -55 26 -84q-9 -6 -21.5 -10t-27.5 -4q-39 0 -59.5 24t-20.5 57v10.5t1 10.5h-30q-85 0 -134.5 -75t-49.5 -231v-118
q0 -76 17.5 -117.5t55 -58t96.5 -16.5h46q4 25 22.5 45.5t53.5 20.5q15 0 27 -4.5t19 -8.5q-12 -16 -19 -34.5t-7 -43.5q0 -26 8 -44.5t18 -31.5q-7 -5 -19 -9.5t-27 -4.5z" />
    <glyph glyph-name="uni122E" unicode="&#x122e;" horiz-adv-x="564" 
d="M462 -66q-36 0 -54 20t-23 46h-99q-118 0 -172.5 53.5t-54.5 182.5v128q0 114 34.5 192t95.5 118t141 40h130q43 0 64.5 -26.5t21.5 -69.5q0 -48 -26 -84t-67 -36h-97q-32 0 -51.5 27.5t-19.5 67.5q0 47 21 79q-71 -15 -111 -94t-40 -219v-118q0 -76 17.5 -117.5t55 -58
t96.5 -16.5h61q5 25 23 45.5t54 20.5q15 0 26.5 -4.5t18.5 -8.5q-12 -16 -18.5 -34.5t-6.5 -43.5q0 -26 7 -44.5t18 -31.5q-7 -5 -18.5 -9.5t-26.5 -4.5zM408 533q27 0 42 24.5t15 59.5q0 26 -11.5 42.5t-33.5 16.5q-26 0 -41 -22t-15 -60q0 -27 12 -44t32 -17z" />
    <glyph glyph-name="uni122F" unicode="&#x122f;" horiz-adv-x="620" 
d="M240 0q-98 0 -148.5 47.5t-50.5 150.5q0 56 20 102.5t53 87t73 78.5q46 44 71.5 72t36 48t10.5 39q0 20 -9.5 29.5t-35.5 9.5h-187q2 7 4.5 22.5t2.5 33.5q0 57 -28 83q19 16 49 16q38 0 58 -23.5t20 -58.5v-12.5t-1 -10.5h296q0 5 -0.5 10.5t-0.5 12.5q0 35 20 58.5
t58 23.5q30 0 49 -16q-28 -26 -28 -83q0 -18 3 -33.5t5 -22.5h-181q2 -10 2 -21q0 -41 -14.5 -73t-44.5 -65t-76 -76q-48 -45 -76.5 -81t-41 -72t-12.5 -82q0 -40 10.5 -73t34.5 -53t65 -20h11q1 260 189 260h130q-2 -8 -4.5 -22t-2.5 -30q0 -55 26 -84q-9 -6 -21.5 -10
t-27.5 -4q-39 0 -59.5 23.5t-20.5 56.5v11t1 10h-13q-40 0 -62 -30.5t-30.5 -83.5t-8.5 -118v-27h-113z" />
    <glyph glyph-name="uni1230" unicode="&#x1230;" horiz-adv-x="558" 
d="M92 -5q-11 15 -16 41t-5 57v231q0 118 45 188t120 92v45q0 37 -10 52.5t-29 16.5v38l111 9q14 -11 19 -31.5t5 -51.5v-70q78 -8 109.5 -65t31.5 -161q0 -32 -0.5 -80t-1.5 -98.5t-1 -88.5q0 -44 12 -58.5t38 -14.5v-42l-130 -9q-10 15 -15.5 38.5t-5.5 59.5
q0 69 1.5 148.5t1.5 151.5q0 86 -18 129t-62 43q-56 0 -88.5 -61t-32.5 -205v-180q0 -44 12.5 -58.5t38.5 -14.5v-42z" />
    <glyph glyph-name="uni1231" unicode="&#x1231;" horiz-adv-x="692" 
d="M92 -5q-11 15 -16 41t-5 57v231q0 118 45 188t120 92v45q0 37 -10 52.5t-29 16.5v38l111 9q14 -11 19 -31.5t5 -51.5v-70q78 -8 109.5 -65t31.5 -161q0 -32 -0.5 -80t-1.5 -98.5t-1 -88.5q0 -44 12 -58.5t38 -14.5v-42l-130 -9q-10 15 -15.5 38.5t-5.5 59.5
q0 69 1.5 148.5t1.5 151.5q0 86 -18 129t-62 43q-56 0 -88.5 -61t-32.5 -205v-180q0 -44 12.5 -58.5t38.5 -14.5v-42zM638 226q-36 0 -54 20t-23 47h-125v50h125q5 26 23 45.5t54 19.5q16 0 29 -4.5t19 -9.5q-14 -16 -20.5 -34.5t-6.5 -43.5q0 -27 8.5 -45t18.5 -29
q-6 -6 -19 -11t-29 -5z" />
    <glyph glyph-name="uni1232" unicode="&#x1232;" horiz-adv-x="705" 
d="M92 -5q-12 15 -16.5 41t-4.5 57v231q0 118 45 188t120 92v45q0 37 -10 52.5t-29 16.5v38l111 9q14 -11 19 -31.5t5 -51.5v-70q78 -8 109.5 -65t31.5 -161q0 -32 -0.5 -80t-1.5 -98t-1 -88q0 -42 12 -56t38 -14h44q4 26 22.5 45.5t54.5 19.5q16 0 29 -4.5t19 -9.5
q-13 -16 -20 -34.5t-7 -43.5q0 -27 8 -45t19 -29q-6 -6 -19 -11t-29 -5q-36 0 -54 20t-23 47h-174q-21 28 -21 94q0 69 1.5 148t1.5 151q0 86 -18 129t-62 43q-56 0 -88.5 -61t-32.5 -205v-180q0 -44 12.5 -58.5t38.5 -14.5v-42z" />
    <glyph glyph-name="uni1233" unicode="&#x1233;" horiz-adv-x="543" 
d="M375 -4q-21 28 -21 98q0 46 1 100.5t1.5 111t0.5 107.5q0 83 -20.5 117.5t-64.5 34.5q-56 0 -86 -44.5t-30 -144.5v-33q0 -37 12.5 -50t39.5 -13v-42l-131 -9q-11 15 -16 41t-5 57v53q0 88 43 147t119 78v44q0 37 -10 52.5t-30 16.5v38l111 9q14 -11 19.5 -31.5
t5.5 -51.5v-70q76 -8 110 -59t34 -143q0 -27 -0.5 -65t-1 -79t-1 -79.5t-0.5 -66.5q0 -44 12 -58.5t39 -14.5v-42z" />
    <glyph glyph-name="uni1234" unicode="&#x1234;" horiz-adv-x="702" 
d="M92 -5q-12 15 -16.5 41t-4.5 57v231q0 118 45 188.5t119 91.5v45q0 37 -10 52.5t-29 16.5v38l110 9q14 -11 20 -31.5t6 -51.5v-70q78 -6 109.5 -63t31.5 -164q0 -19 -0.5 -51t-1.5 -63t-1 -49h95q119 0 119 -96q0 -52 -33.5 -89t-97.5 -37h-120q-29 7 -46 27t-17 56
q0 43 0.5 90t0.5 90.5t0.5 77.5t0.5 51q0 86 -18 129.5t-62 43.5q-56 0 -88.5 -61t-32.5 -205v-180q0 -44 12.5 -58.5t38.5 -14.5v-42zM524 35q68 0 68 87q0 33 -15 47.5t-45 14.5h-62v-94q0 -32 14 -43.5t40 -11.5z" />
    <glyph glyph-name="uni1235" unicode="&#x1235;" horiz-adv-x="558" 
d="M92 -5q-11 15 -16 41t-5 57v231q0 118 45 188t121 92l-34 74q-5 11 -7.5 21.5t-2.5 20.5q0 13 4 23t10 17l115 3v-38q-14 -2 -20 -11t-6 -20q0 -12 6 -26l26 -56q80 -7 112.5 -64t32.5 -162q0 -32 -0.5 -80t-1.5 -98.5t-1 -88.5q0 -44 12 -58.5t38 -14.5v-42l-130 -9
q-10 15 -15.5 38.5t-5.5 59.5q0 69 1.5 148.5t1.5 151.5q0 86 -18 129t-62 43q-56 0 -88.5 -61t-32.5 -205v-180q0 -44 12.5 -58.5t38.5 -14.5v-42z" />
    <glyph glyph-name="uni1236" unicode="&#x1236;" horiz-adv-x="534" 
d="M92 -4q-11 15 -16 40.5t-5 57.5v237q0 116 43.5 183t116.5 89v46q0 37 -10.5 52.5t-29.5 16.5v38l111 9q25 -21 25 -83v-70q54 -4 85.5 -28t45.5 -61.5t14 -82.5q0 -14 -1 -40t-1 -38q0 -44 12 -58.5t38 -14.5v-42l-130 -9q-12 15 -16.5 38.5t-4.5 59.5q0 8 0.5 24.5
t0.5 35v30.5q0 62 -17 100.5t-61 38.5q-38 0 -65 -24.5t-41.5 -81.5t-14.5 -153v-186q0 -44 12.5 -58.5t38.5 -14.5v-42z" />
    <glyph glyph-name="uni1237" unicode="&#x1237;" horiz-adv-x="656" 
d="M64 -105q-30 0 -49 16q28 28 28 83q0 18 -3 33.5t-5 22.5h329q-3 17 -3 44q0 46 0.5 100.5t1 111t0.5 107.5q0 83 -20.5 117.5t-64.5 34.5q-56 0 -85.5 -44.5t-29.5 -144.5v-33q0 -37 12.5 -50t38.5 -13v-42l-130 -9q-12 15 -16.5 41t-4.5 57v53q0 91 46 151.5t128 76.5
v41q0 37 -10 52.5t-29 16.5v38l110 9q25 -21 25 -83v-72q69 -11 100 -61.5t31 -138.5q0 -27 -0.5 -65t-1 -79t-1 -79.5t-0.5 -66.5q0 -43 12.5 -56.5t38.5 -13.5h109q-2 -7 -4.5 -22.5t-2.5 -33.5q0 -57 28 -83q-19 -16 -49 -16q-38 0 -58 23.5t-20 58.5q0 7 0.5 12.5
t0.5 10.5h-376q1 -5 1.5 -10.5t0.5 -12.5q0 -35 -20 -58.5t-58 -23.5z" />
    <glyph glyph-name="uni1238" unicode="&#x1238;" horiz-adv-x="592" 
d="M107 -5q-11 15 -16 41t-5 57v231q0 120 46.5 190.5t124.5 90.5v105h-81q-4 -26 -23.5 -46t-52.5 -20q-16 0 -28 5t-19 10q13 16 20 34.5t7 43.5q0 27 -8 45t-19 29q7 6 19 10.5t28 4.5q33 0 52 -19.5t24 -46.5h246q4 26 23.5 46t53.5 20q15 0 27 -5t20 -10
q-14 -16 -21 -34.5t-7 -43.5q0 -27 8 -45t20 -29q-8 -6 -20 -10.5t-27 -4.5q-34 0 -52.5 19.5t-24.5 46.5h-75v-98q78 -8 109.5 -65t31.5 -161q0 -32 -1 -80t-1.5 -98.5t-0.5 -88.5q0 -44 12 -58.5t38 -14.5v-42l-130 -9q-11 15 -16 38.5t-5 59.5q0 69 1.5 148.5t1.5 151.5
q0 86 -18.5 129t-61.5 43q-56 0 -88.5 -61t-32.5 -205v-180q0 -44 12.5 -58.5t38.5 -14.5v-42z" />
    <glyph glyph-name="uni1239" unicode="&#x1239;" horiz-adv-x="702" 
d="M107 -5q-11 15 -16 41t-5 57v231q0 120 46.5 190.5t124.5 90.5v105h-81q-4 -26 -23.5 -46t-52.5 -20q-16 0 -28 5t-19 10q13 16 20 34.5t7 43.5q0 27 -8 45t-19 29q7 6 19 10.5t28 4.5q33 0 52 -19.5t24 -46.5h246q4 26 23.5 46t53.5 20q15 0 27 -5t20 -10
q-14 -16 -21 -34.5t-7 -43.5q0 -27 8 -45t20 -29q-8 -6 -20 -10.5t-27 -4.5q-34 0 -52.5 19.5t-24.5 46.5h-75v-98q78 -8 109.5 -65t31.5 -161q0 -32 -1 -80t-1.5 -98.5t-0.5 -88.5q0 -44 12 -58.5t38 -14.5v-42l-130 -9q-11 15 -16 38.5t-5 59.5q0 69 1.5 148.5t1.5 151.5
q0 86 -18.5 129t-61.5 43q-56 0 -88.5 -61t-32.5 -205v-180q0 -44 12.5 -58.5t38.5 -14.5v-42zM649 227q-36 0 -54 20t-23 47h-125v50h125q5 26 23 45.5t54 19.5q16 0 29 -4.5t19 -9.5q-14 -16 -20.5 -34.5t-6.5 -43.5q0 -27 8.5 -45t18.5 -29q-6 -6 -19 -11t-29 -5z" />
    <glyph glyph-name="uni123A" unicode="&#x123a;" horiz-adv-x="716" 
d="M108 -5q-12 15 -16.5 41t-4.5 57v231q0 120 46.5 190.5t123.5 90.5v105h-81q-4 -26 -23.5 -46t-52.5 -20q-16 0 -28 5t-19 10q13 16 20 34.5t7 43.5q0 27 -8 45t-19 29q7 6 19 10.5t28 4.5q33 0 52 -19.5t24 -46.5h246q4 26 23.5 46t53.5 20q15 0 27 -5t20 -10
q-14 -16 -21 -34.5t-7 -43.5q0 -27 8 -45t20 -29q-8 -6 -20 -10.5t-27 -4.5q-34 0 -52.5 19.5t-24.5 46.5h-75v-98q79 -8 110 -65t31 -161q0 -32 -0.5 -80t-1 -98.5t-0.5 -88.5q0 -41 12 -55t38 -14h39q5 26 23 45.5t54 19.5q16 0 29 -4.5t20 -9.5q-13 -16 -20.5 -34.5
t-7.5 -43.5q0 -27 8.5 -45t19.5 -29q-7 -6 -20 -11t-29 -5q-36 0 -54 20t-23 47h-169q-11 15 -16 36t-5 57q0 69 1.5 148.5t1.5 151.5q0 86 -18 129t-62 43q-56 0 -88.5 -61t-32.5 -205v-180q0 -44 12.5 -58.5t38.5 -14.5v-42z" />
    <glyph glyph-name="uni123B" unicode="&#x123b;" horiz-adv-x="582" 
d="M402 -4q-21 28 -21 98q0 46 0.5 100.5t1.5 111t1 107.5q0 83 -20.5 117.5t-64.5 34.5q-56 0 -86 -44.5t-30 -144.5v-33q0 -37 12.5 -50t39.5 -13v-42l-131 -9q-11 15 -16 41t-5 57v53q0 88 43 147t119 78v105h-79q-4 -26 -23.5 -46t-52.5 -20q-16 0 -28 5t-19 10
q13 16 20 34.5t7 43.5q0 27 -8 45t-19 29q7 6 19 10.5t28 4.5q33 0 52 -19.5t24 -46.5h246q4 26 23.5 46t53.5 20q15 0 27 -5t20 -10q-14 -16 -21 -34.5t-7 -43.5q0 -27 8 -45t20 -29q-8 -6 -20 -10.5t-27 -4.5q-34 0 -52.5 19.5t-24.5 46.5h-77v-98q80 -6 115 -57t35 -145
q0 -27 -0.5 -65t-1 -79t-1 -79.5t-0.5 -66.5q0 -44 12 -58.5t39 -14.5v-42z" />
    <glyph glyph-name="uni123C" unicode="&#x123c;" horiz-adv-x="712" 
d="M104 -5q-12 15 -16.5 41t-4.5 57v231q0 121 47.5 192t125.5 90v104h-80q-4 -26 -23.5 -46t-52.5 -20q-16 0 -28 5t-19 10q13 16 20 34.5t7 43.5q0 27 -8 45t-19 29q7 6 19 10.5t28 4.5q33 0 52 -19.5t24 -46.5h246q4 26 23.5 46t53.5 20q15 0 27 -5t20 -10
q-14 -16 -21 -34.5t-7 -43.5q0 -27 8 -45t20 -29q-8 -6 -20 -10.5t-27 -4.5q-34 0 -52.5 19.5t-24.5 46.5h-77v-98q77 -9 107 -65.5t30 -160.5q0 -31 -1 -74.5t-1 -89.5h94q120 0 120 -96q0 -52 -34 -89t-98 -37h-90q-43 10 -66.5 36t-23.5 77v109v0q0 46 0.5 84t0.5 87
q0 86 -17.5 129t-61.5 43q-56 0 -88.5 -61t-32.5 -205v-180q0 -44 12.5 -58.5t38.5 -14.5v-42zM534 35q67 0 67 87q0 33 -15 47.5t-45 14.5h-60v-64q0 -47 13.5 -66t39.5 -19z" />
    <glyph glyph-name="uni123D" unicode="&#x123d;" horiz-adv-x="580" 
d="M105 -5q-11 15 -16 41t-5 57v231q0 118 45 188t121 92l-34 74q-5 11 -7.5 21.5t-2.5 20.5q0 13 4 23t10 17l115 3v-38q-14 -2 -20 -11t-6 -20q0 -12 6 -26l26 -56q80 -7 112.5 -64t32.5 -162q0 -32 -0.5 -80t-1.5 -98.5t-1 -88.5q0 -44 12 -58.5t38 -14.5v-42l-130 -9
q-10 15 -15.5 38.5t-5.5 59.5q0 69 1.5 148.5t1.5 151.5q0 86 -18 129t-62 43q-56 0 -88.5 -61t-32.5 -205v-180q0 -44 12.5 -58.5t38.5 -14.5v-42zM70 659q-16 0 -28 5t-19 10q13 16 20 34.5t7 43.5q0 27 -8 45t-19 29q7 6 19 10.5t28 4.5q33 0 52 -19.5t24 -46.5h246
q4 26 23.5 46t53.5 20q15 0 27 -5t20 -10q-14 -16 -21 -34.5t-7 -43.5q0 -27 8 -45t20 -29q-8 -6 -20 -10.5t-27 -4.5q-34 0 -52.5 19.5t-24.5 46.5h-246q-4 -26 -23.5 -46t-52.5 -20z" />
    <glyph glyph-name="uni123E" unicode="&#x123e;" horiz-adv-x="592" 
d="M103 -4q-11 15 -16 40.5t-5 57.5v237q0 121 47.5 189.5t126.5 85.5v104h-80q-4 -26 -23.5 -46t-52.5 -20q-16 0 -28 5t-19 10q13 16 20 34.5t7 43.5q0 27 -8 45t-19 29q7 6 19 10.5t28 4.5q33 0 52 -19.5t24 -46.5h246q4 26 23.5 46t53.5 20q15 0 27 -5t20 -10
q-14 -16 -21 -34.5t-7 -43.5q0 -27 8 -45t20 -29q-8 -6 -20 -10.5t-27 -4.5q-34 0 -52.5 19.5t-24.5 46.5h-76v-99q51 -5 81 -29t43 -61t13 -81q0 -14 -1 -40t-1 -38q0 -44 12 -58.5t38 -14.5v-42l-130 -9q-12 15 -16.5 38.5t-4.5 59.5v24.5t0.5 35t0.5 30.5
q0 62 -17.5 100.5t-60.5 38.5q-37 0 -64.5 -24.5t-42 -81.5t-14.5 -153v-186q0 -44 12.5 -58.5t38.5 -14.5v-42z" />
    <glyph glyph-name="uni123F" unicode="&#x123f;" horiz-adv-x="656" 
d="M64 -105q-30 0 -49 16q28 28 28 83q0 18 -3 33.5t-5 22.5h334q-3 18 -3 44q0 46 1 100.5t1.5 111t0.5 107.5q0 83 -20.5 117.5t-64.5 34.5q-56 0 -86 -44.5t-30 -144.5v-33q0 -37 12.5 -50t39.5 -13v-42l-131 -9q-11 15 -16 41t-5 57v53q0 91 46 151t127 76v103h-81
q-4 -26 -23.5 -46t-52.5 -20q-16 0 -28 5t-19 10q13 16 20 34.5t7 43.5q0 27 -8 45t-19 29q7 6 19 10.5t28 4.5q33 0 52 -19.5t24 -46.5h246q4 26 23.5 46t53.5 20q15 0 27 -5t20 -10q-14 -16 -21 -34.5t-7 -43.5q0 -27 8 -45t20 -29q-8 -6 -20 -10.5t-27 -4.5
q-34 0 -52.5 19.5t-24.5 46.5h-75v-99q73 -9 106 -60t33 -141q0 -27 -0.5 -65t-1 -79t-1 -79.5t-0.5 -66.5q0 -43 12 -56.5t39 -13.5h103q-2 -7 -4.5 -22.5t-2.5 -33.5q0 -57 28 -83q-19 -16 -49 -16q-38 0 -58 23.5t-20 58.5q0 7 0.5 12.5t0.5 10.5h-376q1 -5 1.5 -10.5
t0.5 -12.5q0 -35 -20 -58.5t-58 -23.5z" />
    <glyph glyph-name="uni1240" unicode="&#x1240;" horiz-adv-x="550" 
d="M239 236q-120 0 -171.5 37t-51.5 118q0 77 52 116t171 39h71q122 0 173.5 -36.5t51.5 -118.5q0 -76 -52.5 -115.5t-172.5 -39.5h-71zM242 282h65q76 0 103.5 28t27.5 85q0 31 -9.5 54.5t-37.5 37t-84 13.5h-65q-75 0 -102.5 -28t-27.5 -84q0 -32 10.5 -55.5t39 -37
t80.5 -13.5zM249 -5q-11 13 -17.5 31t-6.5 47v537q0 59 -40 59v40l114 9q11 -8 17.5 -28t6.5 -43v-536q0 -41 11 -54t31 -13v-40z" />
    <glyph glyph-name="uni1241" unicode="&#x1241;" horiz-adv-x="559" 
d="M239 242q-120 0 -171.5 37t-51.5 118q0 77 52 116t171 39h71q122 0 173.5 -36.5t51.5 -118.5q0 -76 -52.5 -115.5t-172.5 -39.5h-71zM242 288h65q76 0 103.5 28t27.5 85q0 31 -9.5 54.5t-37.5 37t-84 13.5h-65q-75 0 -102.5 -28t-27.5 -84q0 -32 10.5 -55.5t39 -37
t80.5 -13.5zM249 -5q-11 13 -17.5 31t-6.5 47v537q0 59 -40 59v40l114 9q11 -8 17.5 -28t6.5 -43v-536q0 -41 11 -54t31 -13v-40zM494 55q-36 0 -54 20t-23 47h-125v50h125q5 26 23 45.5t54 19.5q16 0 29 -4.5t19 -9.5q-14 -16 -20.5 -34.5t-6.5 -43.5q0 -27 8.5 -45
t18.5 -29q-6 -6 -19 -11t-29 -5z" />
    <glyph glyph-name="uni1242" unicode="&#x1242;" horiz-adv-x="555" 
d="M243 0q-21 28 -21 98v139q-111 3 -158.5 40t-47.5 115q0 74 48 113t158 42v63q0 59 -39 59v40l113 9q11 -8 18.5 -28t7.5 -43v-100q115 -2 164 -38.5t49 -116.5q0 -74 -50 -113.5t-163 -41.5v-114q0 -44 12.5 -58.5t39.5 -14.5h40q4 26 22.5 45.5t54.5 19.5q16 0 29 -4.5
t19 -9.5q-13 -16 -20 -34.5t-7 -43.5q0 -27 8 -45t19 -29q-6 -6 -19 -11t-29 -5q-36 0 -54 20t-23 47h-171zM438 396q0 30 -8.5 52.5t-33.5 36.5t-74 16v-218q67 3 91.5 31t24.5 82zM112 389q0 -44 22 -72.5t88 -32.5v216q-63 -3 -86.5 -31t-23.5 -80z" />
    <glyph glyph-name="uni1243" unicode="&#x1243;" horiz-adv-x="574" 
d="M263 236q-120 0 -171.5 37t-51.5 118q0 77 52 116t171 39h71q122 0 173.5 -36.5t51.5 -118.5q0 -76 -52.5 -115.5t-172.5 -39.5h-71zM266 282h65q76 0 103.5 28t27.5 85q0 31 -9.5 54.5t-37.5 37t-84 13.5h-65q-75 0 -102.5 -28t-27.5 -84q0 -32 10.5 -55.5t39 -37
t80.5 -13.5zM58 -99q-15 0 -25.5 3.5t-17.5 7.5q19 32 19 86q0 14 -1 25t-3 20h58q88 0 124 51t36 154v351q0 41 -11 54t-30 13v39l112 9q12 -13 19 -31.5t7 -46.5v-393q0 -113 -55.5 -180.5t-155.5 -67.5h-4q1 -6 1 -9v-7q0 -30 -19.5 -54t-53.5 -24z" />
    <glyph glyph-name="uni1244" unicode="&#x1244;" horiz-adv-x="550" 
d="M311 0q-42 9 -64 32.5t-22 70.5v188q-112 2 -160.5 36t-48.5 106q0 68 49 104t160 38v35q0 59 -39 59v40l113 9q11 -8 18 -28t7 -43v-72q111 -2 159 -35.5t48 -106.5q0 -67 -48.5 -103.5t-158.5 -38.5v-88h92q118 0 118 -88q0 -47 -33.5 -81t-97.5 -34h-92zM110 430
q0 -38 23 -64t92 -29v192q-65 -3 -90 -27.5t-25 -71.5zM436 437q0 25 -8 45t-32.5 32.5t-71.5 14.5v-192q65 3 88.5 28t23.5 72zM376 35q66 0 66 77q0 29 -14 42t-44 13h-60v-57q0 -42 13 -58.5t39 -16.5z" />
    <glyph glyph-name="uni1245" unicode="&#x1245;" horiz-adv-x="553" 
d="M252 -5q-11 13 -17.5 31t-6.5 47v172q-112 2 -160.5 39t-48.5 116q0 74 48.5 113.5t160.5 41.5v55q0 29 -9 41.5t-31 12.5h-152q2 7 5 22.5t3 33.5q0 55 -28 83q19 16 49 16q38 0 58 -23.5t20 -58.5q0 -7 -0.5 -12.5t-1.5 -10.5h161q12 -8 18 -26.5t6 -38.5v-94
q114 -2 163 -38.5t49 -116.5q0 -74 -49.5 -113.5t-162.5 -41.5v-134q0 -41 11 -54t31 -13v-40zM441 404q0 29 -8.5 52t-33 37t-73.5 16v-218q66 3 90.5 31t24.5 82zM115 397q0 -45 22.5 -73.5t90.5 -32.5v218q-65 -3 -89 -31t-24 -81z" />
    <glyph glyph-name="uni1246" unicode="&#x1246;" horiz-adv-x="550" 
d="M251 -5q-11 13 -18 31t-7 47v390q0 17 3.5 32.5t14.5 27.5q-44 7 -75 33.5t-31 88.5q0 68 38.5 96.5t98.5 28.5q64 0 100 -27t36 -92q0 -37 -10 -59.5t-26 -37.5t-32 -31q-13 -13 -17 -24t-4 -34v-355q0 -40 11.5 -53.5t30.5 -13.5v-39zM283 557q18 16 30.5 35.5
t12.5 57.5q0 40 -14.5 57t-36.5 17t-37 -18.5t-15 -59.5q0 -44 16.5 -64t43.5 -25zM239 114q-120 0 -171.5 37t-51.5 118q0 77 52 116t171 39h71q122 0 173.5 -36.5t51.5 -118.5q0 -76 -52.5 -115.5t-172.5 -39.5h-71zM242 160h65q76 0 103.5 28t27.5 85q0 31 -9.5 54.5
t-37.5 37t-84 13.5h-65q-75 0 -102.5 -28t-27.5 -84q0 -32 10.5 -55.5t39 -37t80.5 -13.5z" />
    <glyph glyph-name="uni1247" unicode="&#x1247;" horiz-adv-x="547" 
d="M97 -67q-15 0 -28 5t-20 11q11 11 19.5 29t8.5 45q0 25 -7.5 43.5t-20.5 34.5q7 5 20 9.5t28 4.5q37 0 55 -19.5t23 -45.5h13q20 0 29 12.5t9 41.5v64q-113 2 -161.5 36t-48.5 106q0 68 49 104t161 38v31q0 17 3.5 32.5t13.5 27.5q-43 7 -70.5 32t-27.5 78q0 62 35 89.5
t95 27.5q63 0 96 -26t33 -85q0 -31 -8.5 -51t-23 -34.5l-30.5 -30.5q-13 -13 -16.5 -24t-3.5 -34v-33q112 -2 160.5 -35.5t48.5 -106.5q0 -67 -49 -103.5t-160 -38.5v-97q0 -53 -25 -71h-122q-5 -27 -23 -47t-55 -20zM283 577q18 16 27.5 34.5t9.5 46.5q0 66 -45 66t-45 -70
q0 -67 53 -77zM110 307q0 -39 23 -64.5t93 -28.5v192q-66 -3 -91 -27.5t-25 -71.5zM436 314q0 25 -8.5 45t-33 32.5t-72.5 14.5v-192q66 3 90 27.5t24 72.5z" />
    <glyph glyph-name="uni1248" unicode="&#x1248;" horiz-adv-x="742" 
d="M248 -5q-11 13 -17.5 31t-6.5 47v537q0 59 -40 59v40l114 9q11 -8 17.5 -28t6.5 -43v-536q0 -41 11 -54t31 -13v-40zM518 30q-37 0 -58 28t-21 72q0 18 3 34h-152v50h170q15 22 39.5 34t59.5 12h73q47 0 69.5 -27t22.5 -76q0 -33 -12.5 -62t-35 -47t-51.5 -18h-107z
M574 65q32 0 48.5 26.5t16.5 64.5q0 31 -13.5 48.5t-38.5 17.5q-29 0 -46 -24t-17 -66q0 -30 13 -48.5t37 -18.5zM238 289q-119 0 -170.5 34t-51.5 108q0 70 52 106t170 36h71q119 0 170.5 -33.5t51.5 -108.5q0 -69 -51.5 -105.5t-170.5 -36.5h-71zM240 335h67q75 0 102 25
t27 75q0 27 -9.5 47.5t-37 32.5t-82.5 12h-67q-74 0 -102 -24.5t-28 -74.5q0 -27 10.5 -48t39 -33t80.5 -12z" />
    <glyph glyph-name="uni124A" unicode="&#x124a;" horiz-adv-x="880" 
d="M239 236q-120 0 -171.5 37t-51.5 118q0 77 52 116t171 39h71q122 0 173.5 -36.5t51.5 -118.5q0 -76 -52.5 -115.5t-172.5 -39.5h-71zM242 282h65q76 0 103.5 28t27.5 85q0 31 -9.5 54.5t-37.5 37t-84 13.5h-65q-75 0 -102.5 -28t-27.5 -84q0 -32 10.5 -55.5t39 -37
t80.5 -13.5zM249 -5q-11 13 -17.5 31t-6.5 47v537q0 59 -40 59v40l114 9q11 -8 17.5 -28t6.5 -43v-536q0 -41 11 -54t31 -13v-40zM621 278v84h-138v50h138v103h79v-187h154q-3 -7 -5.5 -22.5t-2.5 -33.5q0 -56 29 -83q-21 -16 -52 -16q-40 0 -61 23.5t-21 58.5q0 7 0.5 12.5
t1.5 10.5h-122z" />
    <glyph glyph-name="uni124B" unicode="&#x124b;" horiz-adv-x="574" 
d="M68 24q-31 0 -52 16q29 27 29 83q0 18 -2.5 33.5t-5.5 22.5h203v82q-112 2 -160.5 39t-48.5 116q0 74 48.5 113.5t160.5 41.5v39q0 59 -39 59v40l113 9q12 -8 18.5 -28t6.5 -43v-76q114 -2 162.5 -39t48.5 -116q0 -74 -49.5 -113.5t-161.5 -41.5v-82h177v-68
q0 -41 11 -54t31 -13v-40l-116 -9q-11 13 -18 31t-7 47v56h-269q1 -5 1.5 -10.5t0.5 -12.5q0 -34 -21 -58t-61 -24zM453 420q0 29 -8.5 52t-33 37t-72.5 16v-218q66 3 90 31t24 82zM127 413q0 -45 22.5 -73.5t90.5 -32.5v218q-65 -3 -89 -31t-24 -81z" />
    <glyph glyph-name="uni124C" unicode="&#x124c;" horiz-adv-x="550" 
d="M84 -105q-32 0 -51 16q29 27 29 83q0 18 -2.5 33.5t-5.5 22.5h182q-11 21 -11 53v188q-112 2 -160.5 36t-48.5 106q0 68 49 104t160 38v35q0 59 -39 59v40l113 9q11 -8 18 -28t7 -43v-72q111 -2 159 -35.5t48 -106.5q0 -67 -48.5 -103.5t-158.5 -38.5v-88h92
q118 0 118 -88q0 -47 -33.5 -81t-97.5 -34h-239q2 -5 2 -10.5v-12.5q0 -35 -21 -58.5t-61 -23.5zM110 430q0 -38 23 -64t92 -29v192q-65 -3 -90 -27.5t-25 -71.5zM436 437q0 25 -8 45t-32.5 32.5t-71.5 14.5v-192q65 3 88.5 28t23.5 72zM376 35q66 0 66 77q0 29 -14 42
t-44 13h-60v-57q0 -42 13 -58.5t39 -16.5z" />
    <glyph glyph-name="uni124D" unicode="&#x124d;" horiz-adv-x="843" 
d="M239 236q-120 0 -171.5 37t-51.5 118q0 77 52 116t171 39h71q122 0 173.5 -36.5t51.5 -118.5q0 -76 -52.5 -115.5t-172.5 -39.5h-71zM242 282h65q76 0 103.5 28t27.5 85q0 31 -9.5 54.5t-37.5 37t-84 13.5h-65q-75 0 -102.5 -28t-27.5 -84q0 -32 10.5 -55.5t39 -37
t80.5 -13.5zM249 -5q-11 13 -17.5 31t-6.5 47v537q0 59 -40 59v40l114 9q11 -8 17.5 -28t6.5 -43v-536q0 -41 11 -54t31 -13v-40zM485 364v50h116v177h78v-177h138q-3 -7 -5.5 -22.5t-2.5 -33.5q0 -56 29 -83q-21 -16 -52 -16q-41 0 -61.5 23.5t-20.5 58.5q0 7 0.5 12.5
t1.5 10.5h-221z" />
    <glyph glyph-name="uni1250" unicode="&#x1250;" horiz-adv-x="570" 
d="M260 -5q-11 13 -18 31t-7 47v183q-112 2 -160.5 39t-48.5 116q0 74 48.5 113.5t160.5 41.5v144h-76q-5 -26 -24 -46t-52 -20q-17 0 -28.5 5t-18.5 10q14 16 20.5 34.5t6.5 43.5q0 27 -8 45t-19 29q7 6 18.5 10.5t28.5 4.5q33 0 52 -19.5t24 -46.5h246q5 26 24 46t53 20
q15 0 27.5 -5t19.5 -10q-14 -16 -21 -34.5t-7 -43.5q0 -27 8 -45t20 -29q-7 -6 -19.5 -10.5t-27.5 -4.5q-34 0 -52.5 19.5t-24.5 46.5h-71v-144q114 -2 162.5 -39t48.5 -116q0 -74 -49.5 -113.5t-161.5 -41.5v-145q0 -41 11 -54t31 -13v-40zM448 415q0 29 -8.5 52t-33 37
t-72.5 16v-218q66 3 90 31t24 82zM122 408q0 -45 22.5 -73.5t90.5 -32.5v218q-65 -3 -89 -31t-24 -81z" />
    <glyph glyph-name="uni1251" unicode="&#x1251;" horiz-adv-x="582" 
d="M260 -5q-11 13 -18 31t-7 47v183q-112 2 -160.5 39t-48.5 116q0 74 48.5 113.5t160.5 41.5v144h-76q-5 -26 -24 -46t-52 -20q-17 0 -28.5 5t-18.5 10q14 16 20.5 34.5t6.5 43.5q0 27 -8 45t-19 29q7 6 18.5 10.5t28.5 4.5q33 0 52 -19.5t24 -46.5h246q5 26 24 46t53 20
q15 0 27.5 -5t19.5 -10q-14 -16 -21 -34.5t-7 -43.5q0 -27 8 -45t20 -29q-7 -6 -19.5 -10.5t-27.5 -4.5q-34 0 -52.5 19.5t-24.5 46.5h-71v-144q114 -2 162.5 -39t48.5 -116q0 -74 -49.5 -113.5t-161.5 -41.5v-145q0 -41 11 -54t31 -13v-40zM448 415q0 29 -8.5 52t-33 37
t-72.5 16v-218q66 3 90 31t24 82zM122 408q0 -45 22.5 -73.5t90.5 -32.5v218q-65 -3 -89 -31t-24 -81zM508 46q-36 0 -54 20t-23 47h-125v50h125q5 26 23 45.5t54 19.5q16 0 29 -4.5t19 -9.5q-14 -16 -20.5 -34.5t-6.5 -43.5q0 -27 8.5 -45t18.5 -29q-6 -6 -19 -11t-29 -5z
" />
    <glyph glyph-name="uni1252" unicode="&#x1252;" horiz-adv-x="578" 
d="M258 0q-12 15 -16 38.5t-4 59.5v157q-114 2 -163 39t-49 116q0 75 49.5 114t162.5 41v145h-75q-5 -26 -24 -46t-52 -20q-17 0 -28.5 5t-18.5 10q14 16 20.5 34.5t6.5 43.5q0 27 -8 45t-19 29q7 6 18.5 10.5t28.5 4.5q33 0 52 -19.5t24 -46.5h246q5 26 24 46t53 20
q15 0 27.5 -5t19.5 -10q-14 -16 -21 -34.5t-7 -43.5q0 -27 8 -45t20 -29q-7 -6 -19.5 -10.5t-27.5 -4.5q-34 0 -52.5 19.5t-24.5 46.5h-72v-145q112 -3 160 -39.5t48 -115.5q0 -73 -48.5 -112.5t-159.5 -42.5v-132q0 -44 12.5 -58.5t38.5 -14.5h38q4 26 22.5 45.5t54.5 19.5
q16 0 29 -4.5t19 -9.5q-13 -16 -20 -34.5t-7 -43.5q0 -27 8 -45t19 -29q-6 -6 -19 -11t-29 -5q-36 0 -54 20t-23 47h-168zM122 407q0 -45 23 -74t93 -32v218q-67 -3 -91.5 -30.5t-24.5 -81.5zM448 414q0 29 -8 51.5t-32 36.5t-71 16v-216q64 3 87.5 31t23.5 81z" />
    <glyph glyph-name="uni1253" unicode="&#x1253;" horiz-adv-x="581" 
d="M58 -99q-15 0 -25.5 3.5t-17.5 7.5q19 32 19 86q0 14 -1 25t-3 20h58q85 0 121.5 48t38.5 145q-113 2 -162 39t-49 116q0 75 49 114t162 41v164h-76q-4 -26 -23.5 -46t-52.5 -20q-16 0 -28 5t-19 10q13 16 20 34.5t7 43.5q0 27 -8 45t-19 29q7 6 19 10.5t28 4.5
q33 0 52 -19.5t24 -46.5h246q4 26 23.5 46t53.5 20q15 0 27 -5t20 -10q-14 -16 -21 -34.5t-7 -43.5q0 -27 8 -45t20 -29q-8 -6 -20 -10.5t-27 -4.5q-34 0 -52.5 19.5t-24.5 46.5h-73v-164q114 -2 162.5 -39t48.5 -116q0 -74 -49.5 -113.5t-161.5 -41.5q-2 -110 -57 -175.5
t-154 -65.5h-4q1 -6 1 -9v-7q0 -30 -19.5 -54t-53.5 -24zM133 388q0 -45 23 -74t92 -32v218q-66 -3 -90.5 -31t-24.5 -81zM459 395q0 29 -8.5 52t-33 37t-72.5 16v-218q66 3 90 31t24 82z" />
    <glyph glyph-name="uni1254" unicode="&#x1254;" horiz-adv-x="563" 
d="M322 0q-44 9 -65.5 32.5t-21.5 70.5v198q-112 2 -160.5 36t-48.5 106q0 68 49 104t160 38v125h-77q-4 -26 -23.5 -46t-52.5 -20q-16 0 -28 5t-19 10q13 16 20 34.5t7 43.5q0 27 -8 45t-19 29q7 6 19 10.5t28 4.5q33 0 52 -19.5t24 -46.5h246q4 26 23.5 46t53.5 20
q15 0 27 -5t20 -10q-14 -16 -21 -34.5t-7 -43.5q0 -27 8 -45t20 -29q-8 -6 -20 -10.5t-27 -4.5q-34 0 -52.5 19.5t-24.5 46.5h-70v-125q111 -2 159 -35.5t48 -106.5q0 -67 -48.5 -103.5t-158.5 -38.5v-98h92q118 0 118 -88q0 -47 -33.5 -81t-97.5 -34h-91zM120 440
q0 -38 23 -64t92 -29v192q-65 -3 -90 -27.5t-25 -71.5zM446 447q0 25 -8 45t-32.5 32.5t-71.5 14.5v-192q65 3 88.5 28t23.5 72zM386 35q66 0 66 77q0 29 -14.5 42t-44.5 13h-59v-57q0 -42 13 -58.5t39 -16.5z" />
    <glyph glyph-name="uni1255" unicode="&#x1255;" horiz-adv-x="614" 
d="M295 -5q-13 11 -20 28.5t-7 46.5q0 11 2 30t5 44q-102 4 -146.5 38t-44.5 103q0 70 52 106t170 36h9q2 19 3.5 33.5t1.5 23.5q0 29 -13 40t-40 11h-81v173h-47q-8 -32 -26 -49.5t-51 -17.5q-15 0 -27.5 5t-19.5 12q12 11 20 28.5t8 45.5q0 26 -7 43.5t-21 33.5
q10 9 22.5 12.5t25.5 3.5q34 0 52.5 -19.5t23.5 -45.5h192q5 26 23.5 45.5t52.5 19.5q17 0 28 -4.5t19 -11.5q-14 -16 -21 -33.5t-7 -42.5q0 -47 28 -75q-7 -7 -19 -12t-28 -5q-31 0 -50 17.5t-26 49.5h-46v-120h61q40 0 56.5 -20t16.5 -51q0 -10 -2.5 -34t-7.5 -57
q102 -4 146 -37.5t44 -103.5q0 -69 -51.5 -105.5t-170.5 -36.5h-5q-4 -33 -4 -45q0 -54 46 -54v-40zM178 282q0 -37 20.5 -62t82.5 -30q6 46 14 96.5t14 94.5h-1q-74 0 -102 -24.5t-28 -74.5zM504 289q0 24 -7.5 43.5t-29 32t-64.5 15.5q-6 -47 -13 -98t-13 -93
q74 0 100.5 25t26.5 75z" />
    <glyph glyph-name="uni1256" unicode="&#x1256;" horiz-adv-x="589" 
d="M274 -5q-11 13 -18 31t-7 47v38q-112 2 -160.5 36t-48.5 106q0 68 49 104t162 38q3 23 16 38q-44 7 -75 33.5t-31 88.5q0 53 24 81.5t64 38.5v33h-99q-8 -32 -26 -49.5t-51 -17.5q-15 0 -27 5t-20 12q12 11 20 28.5t8 45.5q0 26 -7 43.5t-21 33.5q10 9 22.5 12.5
t25.5 3.5q34 0 53 -19.5t23 -45.5h290q4 26 23 45.5t53 19.5q17 0 28.5 -4.5t18.5 -11.5q-13 -16 -20.5 -33.5t-7.5 -42.5q0 -47 28 -75q-7 -7 -19 -12t-28 -5q-32 0 -50 17.5t-26 49.5h-95v-32q42 -8 65.5 -35.5t23.5 -79.5q0 -37 -10 -59.5t-26 -37.5t-32 -31
q-18 -17 -20 -38q112 -2 160.5 -35.5t48.5 -106.5q0 -67 -49 -103.5t-161 -38.5v-1q0 -40 11.5 -53.5t30.5 -13.5v-39zM306 467q19 16 31 35.5t12 57.5q0 40 -14 57t-36 17q-23 0 -38 -18.5t-15 -59.5q0 -44 16.5 -64t43.5 -25zM460 257q0 25 -8.5 45.5t-33 32.5t-73.5 14
v-192q67 3 91 27.5t24 72.5zM134 250q0 -38 23 -64t92 -29v192q-65 -3 -90 -27.5t-25 -71.5z" />
    <glyph glyph-name="uni1258" unicode="&#x1258;" horiz-adv-x="720" 
d="M259 -5q-11 13 -18 31t-7 47v240q-112 2 -160 36t-48 106q0 68 48.5 104t159.5 38v113h-75q-5 -26 -24 -46t-52 -20q-17 0 -28.5 5t-18.5 10q14 16 20.5 34.5t6.5 43.5q0 27 -8 45t-19 29q7 6 18.5 10.5t28.5 4.5q33 0 52 -19.5t24 -46.5h246q5 26 24 46t53 20
q15 0 27.5 -5t19.5 -10q-14 -16 -21 -34.5t-7 -43.5q0 -27 8 -45t20 -29q-7 -6 -19.5 -10.5t-27.5 -4.5q-34 0 -52.5 19.5t-24.5 46.5h-72v-113q112 -2 160 -35.5t48 -106.5q0 -67 -48.5 -103.5t-159.5 -38.5v-89h119q30 27 88 27h70q93 0 93 -87q0 -44 -28 -77.5t-72 -33.5
h-103q-38 0 -59 24.5t-21 62.5q0 19 4 34h-91v-64q0 -40 11.5 -53.5t30.5 -13.5v-39zM446 459q0 25 -8.5 45t-32.5 32.5t-72 14.5v-192q65 3 89 28t24 72zM120 452q0 -38 22.5 -64t91.5 -29v192q-65 -3 -89.5 -27.5t-24.5 -71.5zM554 90q32 0 48 21t16 51q0 24 -13 38
t-38 14q-29 0 -46 -18.5t-17 -52.5q0 -23 13 -38t37 -15z" />
    <glyph glyph-name="uni125A" unicode="&#x125a;" horiz-adv-x="885" 
d="M260 -5q-11 13 -18 31t-7 47v183q-112 2 -160.5 39t-48.5 116q0 74 48.5 113.5t160.5 41.5v144h-76q-5 -26 -24 -46t-52 -20q-17 0 -28.5 5t-18.5 10q14 16 20.5 34.5t6.5 43.5q0 27 -8 45t-19 29q7 6 18.5 10.5t28.5 4.5q33 0 52 -19.5t24 -46.5h246q5 26 24 46t53 20
q15 0 27.5 -5t19.5 -10q-14 -16 -21 -34.5t-7 -43.5q0 -27 8 -45t20 -29q-7 -6 -19.5 -10.5t-27.5 -4.5q-34 0 -52.5 19.5t-24.5 46.5h-71v-144q114 -2 162.5 -39t48.5 -116q0 -74 -49.5 -113.5t-161.5 -41.5v-145q0 -41 11 -54t31 -13v-40zM448 415q0 29 -8.5 52t-33 37
t-72.5 16v-218q66 3 90 31t24 82zM122 408q0 -45 22.5 -73.5t90.5 -32.5v218q-65 -3 -89 -31t-24 -81zM626 296v84h-138v50h138v103h79v-187h154q-3 -7 -5.5 -22.5t-2.5 -33.5q0 -56 29 -83q-21 -16 -52 -16q-40 0 -61 23.5t-21 58.5q0 7 0.5 12.5t1.5 10.5h-122z" />
    <glyph glyph-name="uni125B" unicode="&#x125b;" horiz-adv-x="589" 
d="M99 38q-31 0 -52 16q29 27 29 83q0 18 -2.5 33.5t-5.5 22.5h179v105q-113 2 -162 35.5t-49 106.5q0 68 49.5 104t161.5 38v128h-77q-4 -26 -23.5 -46t-52.5 -20q-16 0 -28 5t-19 10q13 16 20 34.5t7 43.5q0 27 -8 45t-19 29q7 6 19 10.5t28 4.5q33 0 52 -19.5t24 -46.5
h246q4 26 23.5 46t53.5 20q15 0 27 -5t20 -10q-14 -16 -21 -34.5t-7 -43.5q0 -27 8 -45t20 -29q-8 -6 -20 -10.5t-27 -4.5q-34 0 -52.5 19.5t-24.5 46.5h-70v-128q110 -2 157.5 -36t47.5 -106q0 -66 -48 -102.5t-157 -39.5v-105h166v-83q0 -40 11 -53.5t31 -13.5v-39
l-111 -9q-11 13 -18 31t-7 47v70h-239q1 -5 1.5 -10.5t0.5 -12.5q0 -34 -21 -58t-61 -24zM130 437q0 -39 23 -64.5t94 -28.5v192q-67 -2 -92 -27t-25 -72zM456 444q0 25 -8 45t-31.5 32t-70.5 15v-192q64 4 87 28.5t23 71.5z" />
    <glyph glyph-name="uni125C" unicode="&#x125c;" horiz-adv-x="591" 
d="M89 -105q-31 0 -52 16q29 27 29 83q0 18 -2.5 33.5t-5.5 22.5h197q-10 21 -10 53v198q-112 2 -160.5 36t-48.5 106q0 68 49 104t160 38v125h-77q-4 -26 -23.5 -46t-52.5 -20q-16 0 -28 5t-19 10q13 16 20 34.5t7 43.5q0 27 -8 45t-19 29q7 6 19 10.5t28 4.5
q33 0 52 -19.5t24 -46.5h246q4 26 23.5 46t53.5 20q15 0 27 -5t20 -10q-14 -16 -21 -34.5t-7 -43.5q0 -27 8 -45t20 -29q-8 -6 -20 -10.5t-27 -4.5q-34 0 -52.5 19.5t-24.5 46.5h-70v-125q111 -2 159 -35.5t48 -106.5q0 -67 -48.5 -103.5t-158.5 -38.5v-98h92q118 0 118 -88
q0 -47 -33.5 -81t-97.5 -34h-254q1 -5 1.5 -10.5t0.5 -12.5q0 -35 -21 -58.5t-61 -23.5zM130 440q0 -38 23 -64t92 -29v192q-65 -3 -90 -27.5t-25 -71.5zM456 447q0 25 -8 45t-32.5 32.5t-71.5 14.5v-192q65 3 88.5 28t23.5 72zM396 35q66 0 66 77q0 29 -14.5 42t-44.5 13
h-59v-57q0 -42 13 -58.5t39 -16.5z" />
    <glyph glyph-name="uni125D" unicode="&#x125d;" horiz-adv-x="856" 
d="M260 -5q-11 13 -18 31t-7 47v183q-112 2 -160.5 39t-48.5 116q0 74 48.5 113.5t160.5 41.5v144h-76q-5 -26 -24 -46t-52 -20q-17 0 -28.5 5t-18.5 10q14 16 20.5 34.5t6.5 43.5q0 27 -8 45t-19 29q7 6 18.5 10.5t28.5 4.5q33 0 52 -19.5t24 -46.5h246q5 26 24 46t53 20
q15 0 27.5 -5t19.5 -10q-14 -16 -21 -34.5t-7 -43.5q0 -27 8 -45t20 -29q-7 -6 -19.5 -10.5t-27.5 -4.5q-34 0 -52.5 19.5t-24.5 46.5h-71v-144q114 -2 162.5 -39t48.5 -116q0 -74 -49.5 -113.5t-161.5 -41.5v-145q0 -41 11 -54t31 -13v-40zM448 415q0 29 -8.5 52t-33 37
t-72.5 16v-218q66 3 90 31t24 82zM122 408q0 -45 22.5 -73.5t90.5 -32.5v218q-65 -3 -89 -31t-24 -81zM498 377v50h116v177h78v-177h138q-3 -7 -5.5 -22.5t-2.5 -33.5q0 -56 29 -83q-21 -16 -52 -16q-41 0 -61.5 23.5t-20.5 58.5q0 7 0.5 12.5t1.5 10.5h-221z" />
    <glyph glyph-name="uni1260" unicode="&#x1260;" horiz-adv-x="564" 
d="M309 726q95 0 131.5 -53.5t36.5 -155.5q0 -32 -0.5 -78.5t-1 -101t-1 -110.5t-0.5 -107q0 -44 12 -58.5t39 -14.5v-42l-131 -9q-21 28 -21 98q0 114 1 228t1 202q0 76 -18 115t-62 39q-57 0 -89 -58t-32 -198v-302q0 -44 12 -58.5t38 -14.5v-42l-130 -9q-11 15 -16 40.5
t-5 57.5v346q0 92 30 156t83 97t123 33z" />
    <glyph glyph-name="uni1261" unicode="&#x1261;" horiz-adv-x="696" 
d="M94 -4q-11 15 -16 40.5t-5 57.5v346q0 92 30 156t83 97t123 33q95 0 131.5 -53.5t36.5 -155.5q0 -30 -0.5 -74t-0.5 -94h89q5 25 23 45t54 20q16 0 29 -4.5t19 -9.5q-14 -16 -20.5 -34t-6.5 -44q0 -27 8.5 -45t18.5 -29q-6 -6 -19 -11t-29 -5q-36 0 -54 20t-23 47h-90
q0 -45 -0.5 -91t-0.5 -88q0 -44 12 -58.5t39 -14.5v-42l-131 -9q-21 28 -21 98q0 114 1 228t1 202q0 76 -18 115t-62 39q-57 0 -89 -58t-32 -198v-302q0 -44 12 -58.5t38 -14.5v-42z" />
    <glyph glyph-name="uni1262" unicode="&#x1262;" horiz-adv-x="708" 
d="M644 -67q-36 0 -54 20t-23 47h-173q-21 28 -21 94q0 114 1 228t1 202q0 76 -18 115t-62 39q-57 0 -89 -58t-32 -198v-302q0 -44 12 -58.5t38 -14.5v-42l-130 -9q-11 15 -16 40.5t-5 57.5v346q0 92 30 156t83 97t123 33q95 0 131.5 -53.5t36.5 -155.5q0 -32 -0.5 -78.5
t-1 -101t-1 -110.5t-0.5 -107q0 -43 12 -56.5t39 -13.5h42q5 26 23 45.5t54 19.5q16 0 29 -4.5t19 -9.5q-14 -16 -20.5 -34.5t-6.5 -43.5q0 -27 8.5 -45t18.5 -29q-6 -6 -19 -11t-29 -5z" />
    <glyph glyph-name="uni1263" unicode="&#x1263;" horiz-adv-x="547" 
d="M377 -4q-21 28 -21 98q0 114 1 228t1 202q0 76 -18 115t-62 39q-57 0 -89 -58t-32 -198v-59q0 -44 12 -58.5t39 -14.5v-42l-131 -9q-11 15 -16 41t-5 57v103q0 92 30 156t83 97t123 33q94 0 131 -53.5t37 -155.5q0 -32 -0.5 -78.5t-1 -101t-1 -110.5t-0.5 -107
q0 -44 12 -58.5t39 -14.5v-42z" />
    <glyph glyph-name="uni1264" unicode="&#x1264;" horiz-adv-x="706" 
d="M94 -4q-11 15 -16 40.5t-5 57.5v346q0 92 30 156t83 97t123 33q95 0 131.5 -53.5t36.5 -155.5q0 -31 -0.5 -71t-1.5 -82t-1.5 -79t-0.5 -63h96q119 0 119 -96q0 -52 -34 -89t-98 -37h-120q-28 7 -45.5 27t-17.5 56q0 83 0.5 165.5t1 154t0.5 121.5q0 76 -18 115t-62 39
q-57 0 -89 -58t-32 -198v-302q0 -44 12 -58.5t38 -14.5v-42zM528 35q67 0 67 87q0 33 -14.5 47.5t-44.5 14.5h-63v-94q0 -32 14 -43.5t41 -11.5z" />
    <glyph glyph-name="uni1265" unicode="&#x1265;" horiz-adv-x="703" 
d="M448 726q95 0 131.5 -53.5t36.5 -155.5q0 -32 -0.5 -78.5t-1 -101t-1 -110.5t-0.5 -107q0 -44 12 -58.5t39 -14.5v-42l-131 -9q-21 28 -21 98q0 114 1 228t1 202q0 76 -18 115t-62 39q-57 0 -89 -58t-32 -198v-302q0 -44 12 -58.5t38 -14.5v-42l-130 -9q-11 15 -16 40.5
t-5 57.5v346q0 92 30 156t83 97t123 33zM57 190q-31 0 -52 16q29 27 29 83q0 18 -2.5 33.5t-5.5 22.5h240v-50h-129q1 -5 1.5 -10.5t0.5 -12.5q0 -35 -21 -58.5t-61 -23.5z" />
    <glyph glyph-name="uni1266" unicode="&#x1266;" horiz-adv-x="549" 
d="M94 -4q-11 15 -16 40.5t-5 57.5v346q0 92 30 156t83 97t123 33q95 0 131.5 -53.5t36.5 -155.5q0 -15 -0.5 -42t-1 -58t-0.5 -60q0 -44 12 -58.5t38 -14.5v-42l-130 -9q-21 28 -21 98q0 44 0.5 96.5t0.5 96.5q0 76 -18 115t-62 39q-57 0 -89 -58t-32 -198v-302
q0 -44 12 -58.5t38 -14.5v-42z" />
    <glyph glyph-name="uni1267" unicode="&#x1267;" horiz-adv-x="660" 
d="M68 -105q-30 0 -49 16q28 28 28 83q0 18 -3 33.5t-5 22.5h329v474q0 76 -17.5 115t-61.5 39q-57 0 -89 -58t-32 -198v-59q0 -44 12 -58.5t39 -14.5v-42l-131 -9q-11 15 -16 41t-5 57v103q0 92 30 156t83 97t123 33q95 0 131 -53.5t36 -155.5v-467h155q-2 -7 -4.5 -22.5
t-2.5 -33.5q0 -57 28 -83q-19 -16 -49 -16q-38 0 -58 23.5t-20 58.5q0 7 0.5 12.5t0.5 10.5h-376q1 -5 1.5 -10.5t0.5 -12.5q0 -35 -20 -58.5t-58 -23.5z" />
    <glyph glyph-name="uni1268" unicode="&#x1268;" horiz-adv-x="569" 
d="M94 -5q-11 15 -16 41t-5 57v231q0 143 65.5 216t169.5 73q93 0 130 -57.5t37 -169.5q0 -32 -0.5 -80t-1.5 -98.5t-1 -88.5q0 -44 12 -58.5t38 -14.5v-42l-130 -9q-10 15 -15.5 38.5t-5.5 59.5q0 69 1.5 148.5t1.5 151.5q0 86 -18 129t-62 43q-56 0 -88.5 -61t-32.5 -205
v-180q0 -44 12.5 -58.5t38.5 -14.5v-42zM123 641q-15 0 -27.5 5t-19.5 12q12 11 20 28.5t8 45.5q0 25 -7 43t-21 34q10 9 22.5 12.5t25.5 3.5q34 0 52.5 -20t23.5 -45h192q5 25 23.5 45t52.5 20q17 0 28 -4.5t19 -11.5q-14 -16 -21 -33.5t-7 -42.5q0 -47 28 -75
q-7 -7 -19 -12t-28 -5q-31 0 -50 18t-26 49h-192q-8 -31 -26 -49t-51 -18z" />
    <glyph glyph-name="uni1269" unicode="&#x1269;" horiz-adv-x="699" 
d="M94 -5q-11 15 -16 41t-5 57v231q0 143 65.5 216t169.5 73q93 0 130 -57.5t37 -169.5q0 -32 -0.5 -80t-1.5 -98.5t-1 -88.5q0 -44 12 -58.5t38 -14.5v-42l-130 -9q-10 15 -15.5 38.5t-5.5 59.5q0 69 1.5 148.5t1.5 151.5q0 86 -18 129t-62 43q-56 0 -88.5 -61t-32.5 -205
v-180q0 -44 12.5 -58.5t38.5 -14.5v-42zM123 641q-15 0 -27.5 5t-19.5 12q12 11 20 28.5t8 45.5q0 25 -7 43t-21 34q10 9 22.5 12.5t25.5 3.5q34 0 52.5 -20t23.5 -45h192q5 25 23.5 45t52.5 20q17 0 28 -4.5t19 -11.5q-14 -16 -21 -33.5t-7 -42.5q0 -47 28 -75
q-7 -7 -19 -12t-28 -5q-31 0 -50 18t-26 49h-192q-8 -31 -26 -49t-51 -18zM646 224q-36 0 -54 20t-23 47h-125v50h125q5 26 23 45.5t54 19.5q16 0 29 -4.5t19 -9.5q-14 -16 -20.5 -34.5t-6.5 -43.5q0 -27 8.5 -45t18.5 -29q-6 -6 -19 -11t-29 -5z" />
    <glyph glyph-name="uni126A" unicode="&#x126a;" horiz-adv-x="710" 
d="M124 641q-15 0 -27.5 5t-19.5 12q12 11 20 28.5t8 45.5q0 26 -7 43.5t-21 33.5q10 9 22.5 12.5t25.5 3.5q34 0 52.5 -19.5t23.5 -45.5h192q5 26 23.5 45.5t52.5 19.5q17 0 28 -4.5t19 -11.5q-14 -16 -21 -33.5t-7 -42.5q0 -47 28 -75q-7 -7 -19 -12t-28 -5
q-31 0 -50 17.5t-26 49.5h-192q-8 -32 -26 -49.5t-51 -17.5zM94 -5q-11 15 -16 41t-5 57v231q0 143 65.5 216t169.5 73q93 0 130 -57.5t37 -169.5q0 -32 -0.5 -80t-1.5 -98t-1 -88q0 -42 12 -56t38 -14h47q5 26 23 45.5t54 19.5q16 0 29 -4.5t19 -9.5q-14 -16 -20.5 -34.5
t-6.5 -43.5q0 -27 8.5 -45t18.5 -29q-6 -6 -19 -11t-29 -5q-36 0 -54 20t-23 47h-177q-10 15 -15.5 36.5t-5.5 57.5q0 69 1.5 148t1.5 151q0 86 -18 129t-62 43q-56 0 -88.5 -61t-32.5 -205v-180q0 -44 12.5 -58.5t38.5 -14.5v-42z" />
    <glyph glyph-name="uni126B" unicode="&#x126b;" horiz-adv-x="552" 
d="M375 -4q-21 28 -21 98q0 46 1 100.5t1.5 111t0.5 107.5q0 83 -20.5 117.5t-64.5 34.5q-56 0 -86 -44.5t-30 -144.5v-33q0 -37 12.5 -50t39.5 -13v-42l-131 -9q-11 15 -16 41t-5 57v53q0 70 28 122.5t79.5 81.5t122.5 29q92 0 132 -51.5t40 -151.5q0 -27 -0.5 -65t-1 -79
t-1 -79.5t-0.5 -66.5q0 -44 12 -58.5t39 -14.5v-42zM108 641q-15 0 -27.5 5t-19.5 12q12 11 20 28.5t8 45.5q0 25 -7 43t-21 34q10 9 22.5 12.5t25.5 3.5q34 0 52.5 -20t23.5 -45h192q5 25 23.5 45t52.5 20q17 0 28 -4.5t19 -11.5q-14 -16 -21 -33.5t-7 -42.5q0 -47 28 -75
q-7 -7 -19 -12t-28 -5q-31 0 -50 18t-26 49h-192q-8 -31 -26 -49t-51 -18z" />
    <glyph glyph-name="uni126C" unicode="&#x126c;" horiz-adv-x="704" 
d="M132 641q-15 0 -27.5 5t-19.5 12q12 11 20 28.5t8 45.5q0 26 -7 43.5t-21 33.5q10 9 22.5 12.5t25.5 3.5q34 0 52.5 -19.5t23.5 -45.5h192q5 26 23.5 45.5t52.5 19.5q17 0 28 -4.5t19 -11.5q-14 -16 -21 -33.5t-7 -42.5q0 -47 28 -75q-7 -7 -19 -12t-28 -5
q-31 0 -50 17.5t-26 49.5h-192q-8 -32 -26 -49.5t-51 -17.5zM94 -5q-11 15 -16 41t-5 57v231q0 143 65.5 216t169.5 73q93 0 130 -57.5t37 -169.5q0 -20 -0.5 -51.5l-1 -63t-0.5 -49.5h95q118 0 118 -96q0 -52 -33.5 -89t-97.5 -37h-120q-29 7 -46 27t-17 56q0 43 0.5 90.5
t0.5 91t0.5 77.5t0.5 51q0 86 -18 129t-62 43q-56 0 -88.5 -61t-32.5 -205v-180q0 -44 12.5 -58.5t38.5 -14.5v-42zM527 35q67 0 67 87q0 33 -14.5 47.5t-45.5 14.5h-61v-94q0 -32 13.5 -43.5t40.5 -11.5z" />
    <glyph glyph-name="uni126D" unicode="&#x126d;" horiz-adv-x="719" 
d="M244 -5q-11 15 -16 41t-5 57v231q0 143 65.5 216t169.5 73q93 0 130 -57.5t37 -169.5q0 -32 -0.5 -80t-1.5 -98.5t-1 -88.5q0 -44 12 -58.5t38 -14.5v-42l-130 -9q-10 15 -15.5 38.5t-5.5 59.5q0 69 1.5 148.5t1.5 151.5q0 86 -18 129t-62 43q-56 0 -88.5 -61t-32.5 -205
v-180q0 -44 12.5 -58.5t38.5 -14.5v-42zM273 641q-15 0 -27.5 5t-19.5 12q12 11 20 28.5t8 45.5q0 25 -7 43t-21 34q10 9 22.5 12.5t25.5 3.5q34 0 52.5 -20t23.5 -45h192q5 25 23.5 45t52.5 20q17 0 28 -4.5t19 -11.5q-14 -16 -21 -33.5t-7 -42.5q0 -47 28 -75
q-7 -7 -19 -12t-28 -5q-31 0 -50 18t-26 49h-192q-8 -31 -26 -49t-51 -18zM67 149q-31 0 -52 16q29 27 29 83q0 18 -2.5 33.5t-5.5 22.5h240v-50h-129q1 -5 1.5 -10.5t0.5 -12.5q0 -35 -21 -58.5t-61 -23.5z" />
    <glyph glyph-name="uni126E" unicode="&#x126e;" horiz-adv-x="546" 
d="M94 -4q-11 15 -16 40.5t-5 57.5v237q0 143 65.5 212.5t169.5 69.5q62 0 98.5 -23.5t52 -62.5t15.5 -87q0 -14 -1 -40t-1 -38q0 -44 12 -58.5t38 -14.5v-42l-130 -9q-12 15 -16.5 38.5t-4.5 59.5q0 8 0.5 24.5t0.5 35v30.5q0 62 -17 100.5t-61 38.5q-38 0 -65 -24.5
t-41.5 -81.5t-14.5 -153v-186q0 -44 12.5 -58.5t38.5 -14.5v-42zM128 641q-15 0 -27.5 5t-19.5 12q12 11 20 28.5t8 45.5q0 25 -7 43t-21 34q10 9 22.5 12.5t25.5 3.5q34 0 52.5 -20t23.5 -45h192q5 25 23.5 45t52.5 20q17 0 28 -4.5t19 -11.5q-14 -16 -21 -33.5t-7 -42.5
q0 -47 28 -75q-7 -7 -19 -12t-28 -5q-31 0 -50 18t-26 49h-192q-8 -31 -26 -49t-51 -18z" />
    <glyph glyph-name="uni126F" unicode="&#x126f;" horiz-adv-x="656" 
d="M99 644q-17 0 -28.5 5t-18.5 10q14 16 20.5 34.5t6.5 43.5q0 27 -8 45t-19 29q7 6 18.5 10.5t28.5 4.5q33 0 52 -19.5t24 -46.5h246q5 26 24 46t53 20q15 0 27.5 -5t19.5 -10q-14 -16 -21 -34.5t-7 -43.5q0 -27 8 -45t20 -29q-7 -6 -19.5 -10.5t-27.5 -4.5
q-34 0 -52.5 19.5t-24.5 46.5h-246q-5 -26 -24 -46t-52 -20zM64 -105q-30 0 -49 16q28 28 28 83q0 18 -3 33.5t-5 22.5h337q0 34 0.5 79t1 94.5t1 95t0.5 80.5q0 82 -18 124t-65 42q-58 0 -88 -52t-30 -151v-19q0 -37 12.5 -50t39.5 -13v-42l-130 -9q-12 15 -17 41t-5 57v46
q0 71 28 125t80 84.5t124 30.5q96 0 133 -56t37 -161q0 -25 -0.5 -68t-1 -93t-1 -99t-0.5 -86h148q-2 -7 -4.5 -22.5t-2.5 -33.5q0 -57 28 -83q-19 -16 -49 -16q-38 0 -58 23.5t-20 58.5q0 7 0.5 12.5t0.5 10.5h-376q1 -5 1.5 -10.5t0.5 -12.5q0 -35 -20 -58.5t-58 -23.5z
" />
    <glyph glyph-name="uni1270" unicode="&#x1270;" horiz-adv-x="559" 
d="M254 -5q-11 13 -17.5 31t-6.5 47v537q0 59 -40 59v40l114 9q11 -8 17.5 -28t6.5 -43v-536q0 -41 11 -54t31 -13v-40zM54 381q-30 0 -49 16q28 28 28 83q0 18 -3 33.5t-5 22.5h507q-2 -7 -4.5 -22.5t-2.5 -33.5q0 -57 28 -83q-19 -16 -49 -16q-38 0 -58 23.5t-20 58.5
v12.5t1 10.5h-297q1 -5 1.5 -10.5t0.5 -12.5q0 -35 -20 -58.5t-58 -23.5z" />
    <glyph glyph-name="uni1271" unicode="&#x1271;" horiz-adv-x="573" 
d="M254 -5q-11 13 -17.5 31t-6.5 47v537q0 59 -40 59v40l114 9q11 -8 17.5 -28t6.5 -43v-536q0 -41 11 -54t31 -13v-40zM54 381q-30 0 -49 16q28 28 28 83q0 18 -3 33.5t-5 22.5h507q-2 -7 -4.5 -22.5t-2.5 -33.5q0 -57 28 -83q-19 -16 -49 -16q-38 0 -58 23.5t-20 58.5
v12.5t1 10.5h-297q1 -5 1.5 -10.5t0.5 -12.5q0 -35 -20 -58.5t-58 -23.5zM507 107q-36 0 -54 20t-23 47h-125v50h125q5 26 23 45.5t54 19.5q16 0 29 -4.5t19 -9.5q-14 -16 -20.5 -34.5t-6.5 -43.5q0 -27 8.5 -45t18.5 -29q-6 -6 -19 -11t-29 -5z" />
    <glyph glyph-name="uni1272" unicode="&#x1272;" horiz-adv-x="568" 
d="M54 381q-30 0 -49 16q28 28 28 83q0 18 -3 33.5t-5 22.5h205v74q0 59 -40 59v40l114 9q11 -8 18 -28t7 -43v-111h203q-2 -7 -4.5 -22.5t-2.5 -33.5q0 -57 28 -83q-19 -16 -49 -16q-38 0 -58 23.5t-20 58.5v12.5t1 10.5h-98v-373q0 -37 11 -50t31 -13h46q5 26 23 45.5
t55 19.5q15 0 28 -4.5t20 -9.5q-13 -16 -20.5 -34.5t-7.5 -43.5q0 -27 8.5 -45t19.5 -29q-7 -6 -20 -11t-28 -5q-37 0 -55 20t-23 47h-162q-11 13 -18 30.5t-7 43.5v412h-100q1 -5 1.5 -10.5t0.5 -12.5q0 -35 -20 -58.5t-58 -23.5z" />
    <glyph glyph-name="uni1273" unicode="&#x1273;" horiz-adv-x="573" 
d="M58 -99q-15 0 -25.5 3.5t-17.5 7.5q19 32 19 86q0 14 -1 25t-3 20h58q88 0 124 51t36 154v351q0 41 -11 54t-30 13v39l112 9q12 -13 19 -31.5t7 -46.5v-393q0 -113 -55.5 -180.5t-155.5 -67.5h-4q1 -6 1 -9v-7q0 -30 -19.5 -54t-53.5 -24zM70 381q-30 0 -49 16
q28 28 28 83q0 18 -3 33.5t-5 22.5h507q-2 -7 -4.5 -22.5t-2.5 -33.5q0 -57 28 -83q-19 -16 -49 -16q-38 0 -58 23.5t-20 58.5v12.5t1 10.5h-297q1 -5 1.5 -10.5t0.5 -12.5q0 -35 -20 -58.5t-58 -23.5z" />
    <glyph glyph-name="uni1274" unicode="&#x1274;" horiz-adv-x="571" 
d="M317 0q-42 9 -64 32.5t-22 70.5v383h-101q1 -5 1.5 -10.5t0.5 -12.5q0 -35 -20 -58.5t-58 -23.5q-30 0 -49 16q28 28 28 83q0 18 -3 33.5t-5 22.5h206v74q0 59 -39 59v40l113 9q11 -8 18 -28t7 -43v-111h202q-2 -7 -4.5 -22.5t-2.5 -33.5q0 -57 28 -83q-19 -16 -49 -16
q-38 0 -58 23.5t-20 58.5v12.5t1 10.5h-97v-283h92q118 0 118 -88q0 -47 -33.5 -81t-97.5 -34h-92zM382 35q66 0 66 77q0 29 -14 42t-44 13h-60v-57q0 -42 13 -58.5t39 -16.5z" />
    <glyph glyph-name="uni1275" unicode="&#x1275;" horiz-adv-x="568" 
d="M266 -5q-11 13 -18 31t-7 47v333h-101q1 -5 1.5 -10.5t0.5 -12.5q0 -35 -20 -58.5t-58 -23.5q-30 0 -49 16q28 28 28 83q0 18 -3 33.5t-5 22.5h206v154q0 29 -8.5 41.5t-30.5 12.5h-152q2 7 4.5 22.5t2.5 33.5q0 56 -27 83q18 16 48 16q38 0 58 -23.5t20 -58.5
q0 -7 -0.5 -12.5t-0.5 -10.5h160q13 -8 19 -26.5t6 -38.5v-193h202q-2 -7 -4.5 -22.5t-2.5 -33.5q0 -57 28 -83q-19 -16 -49 -16q-38 0 -58 23.5t-20 58.5v12.5t1 10.5h-97v-295q0 -41 11 -54t31 -13v-40z" />
    <glyph glyph-name="uni1276" unicode="&#x1276;" horiz-adv-x="578" 
d="M269 -5q-11 13 -18 31t-7 47v390q0 17 3.5 32.5t14.5 27.5q-44 7 -75 33.5t-31 88.5q0 68 38.5 96.5t98.5 28.5q64 0 100 -27t36 -92q0 -37 -10 -59.5t-26 -37.5t-32 -31q-13 -13 -17 -24t-4 -34v-355q0 -40 11.5 -53.5t30.5 -13.5v-39zM301 557q18 16 30.5 35.5
t12.5 57.5q0 40 -14.5 57t-36.5 17t-37 -18.5t-15 -59.5q0 -44 16.5 -64t43.5 -25zM64 258q-30 0 -49 16q28 28 28 83q0 18 -3 33.5t-5 22.5h507q-2 -7 -4.5 -22.5t-2.5 -33.5q0 -57 28 -83q-19 -16 -49 -16q-38 0 -58 23.5t-20 58.5v12.5t1 10.5h-297q1 -5 1.5 -10.5
t0.5 -12.5q0 -35 -20 -58.5t-58 -23.5z" />
    <glyph glyph-name="uni1277" unicode="&#x1277;" horiz-adv-x="602" 
d="M78 -105q-30 0 -49 16q28 28 28 83q0 18 -3 33.5t-5 22.5h206q-2 13 -2 29v384h-103q1 -5 1.5 -10.5t0.5 -12.5q0 -34 -20 -58t-58 -24q-30 0 -49 16q28 28 28 83q0 18 -3 33.5t-5 22.5h208v97q0 59 -40 59v40l113 9q12 -8 18.5 -28t6.5 -43v-134h201q-2 -7 -4.5 -22.5
t-2.5 -33.5q0 -57 28 -83q-19 -16 -49 -16q-38 0 -58 24t-20 58v12.5t1 10.5h-96v-352q0 -36 11 -48.5t31 -12.5h163q-2 -7 -4.5 -22.5t-2.5 -33.5q0 -57 28 -83q-19 -16 -49 -16q-38 0 -58 23.5t-20 58.5v12.5t1 10.5h-297q1 -5 1.5 -10.5t0.5 -12.5q0 -35 -20 -58.5
t-58 -23.5z" />
    <glyph glyph-name="uni1278" unicode="&#x1278;" horiz-adv-x="598" 
d="M276 -5q-11 13 -18 31t-7 47v398h-101q1 -5 1.5 -10.5t0.5 -12.5q0 -34 -20 -58t-58 -24q-30 0 -49 16q28 28 28 83q0 18 -3 33.5t-5 22.5h206v189h-77q-4 -26 -23.5 -46t-52.5 -20q-16 0 -28 5t-19 10q13 16 20 34.5t7 43.5q0 27 -8 45t-19 29q7 6 19 10.5t28 4.5
q33 0 52 -19.5t24 -46.5h246q4 26 23.5 46t53.5 20q15 0 27 -5t20 -10q-14 -16 -21 -34.5t-7 -43.5q0 -27 8 -45t20 -29q-8 -6 -20 -10.5t-27 -4.5q-34 0 -52.5 19.5t-24.5 46.5h-70v-189h202q-2 -7 -4.5 -22.5t-2.5 -33.5q0 -57 28 -83q-19 -16 -49 -16q-38 0 -58 24
t-20 58v12.5t1 10.5h-97v-360q0 -41 11 -54t31 -13v-40z" />
    <glyph glyph-name="uni1279" unicode="&#x1279;" horiz-adv-x="615" 
d="M276 -5q-11 13 -18 31t-7 47v398h-101q1 -5 1.5 -10.5t0.5 -12.5q0 -34 -20 -58t-58 -24q-30 0 -49 16q28 28 28 83q0 18 -3 33.5t-5 22.5h206v189h-77q-4 -26 -23.5 -46t-52.5 -20q-16 0 -28 5t-19 10q13 16 20 34.5t7 43.5q0 27 -8 45t-19 29q7 6 19 10.5t28 4.5
q33 0 52 -19.5t24 -46.5h246q4 26 23.5 46t53.5 20q15 0 27 -5t20 -10q-14 -16 -21 -34.5t-7 -43.5q0 -27 8 -45t20 -29q-8 -6 -20 -10.5t-27 -4.5q-34 0 -52.5 19.5t-24.5 46.5h-70v-189h202q-2 -7 -4.5 -22.5t-2.5 -33.5q0 -57 28 -83q-19 -16 -49 -16q-38 0 -58 24
t-20 58v12.5t1 10.5h-97v-360q0 -41 11 -54t31 -13v-40zM527 114q-36 0 -54 20t-23 47h-125v50h125q5 26 23 45.5t54 19.5q16 0 29 -4.5t19 -9.5q-14 -16 -20.5 -34.5t-6.5 -43.5q0 -27 8.5 -45t18.5 -29q-6 -6 -19 -11t-29 -5z" />
    <glyph glyph-name="uni127A" unicode="&#x127a;" horiz-adv-x="618" 
d="M84 366q-30 0 -49 16q28 28 28 83q0 18 -3 33.5t-5 22.5h205v189h-77q-5 -26 -24 -46t-52 -20q-17 0 -28.5 5t-18.5 10q14 16 20.5 34.5t6.5 43.5q0 27 -8 45t-19 29q7 6 18.5 10.5t28.5 4.5q33 0 52 -19.5t24 -46.5h246q5 26 24 46t53 20q15 0 27.5 -5t19.5 -10
q-14 -16 -21 -34.5t-7 -43.5q0 -27 8 -45t20 -29q-7 -6 -19.5 -10.5t-27.5 -4.5q-34 0 -52.5 19.5t-24.5 46.5h-70v-189h203q-2 -7 -4.5 -22.5t-2.5 -33.5q0 -57 28 -83q-19 -16 -49 -16q-38 0 -58 24t-20 58v12.5t1 10.5h-98v-359q0 -37 11 -49.5t31 -12.5h49
q4 26 22.5 45.5t54.5 19.5q16 0 29 -4.5t19 -9.5q-13 -16 -20 -34.5t-7 -43.5q0 -27 8 -45t19 -29q-6 -6 -19 -11t-29 -5q-36 0 -54 20t-23 47h-165q-11 13 -18 30.5t-7 43.5v397h-100q1 -5 1.5 -10.5t0.5 -12.5q0 -34 -20 -58t-58 -24z" />
    <glyph glyph-name="uni127B" unicode="&#x127b;" horiz-adv-x="603" 
d="M78 -99q-15 0 -25.5 3.5t-17.5 7.5q19 32 19 86q0 14 -1 25t-3 20h58q88 0 124 51t36 154v217h-103q1 -5 1.5 -10.5t0.5 -12.5q0 -34 -20 -58t-58 -24q-30 0 -49 16q28 28 28 83q0 18 -3 33.5t-5 22.5h208v195h-76q-4 -26 -23.5 -46t-52.5 -20q-16 0 -28 5t-19 10
q13 16 20 34.5t7 43.5q0 27 -8 45t-19 29q7 6 19 10.5t28 4.5q33 0 52 -19.5t24 -46.5h246q4 26 23.5 46t53.5 20q15 0 27 -5t20 -10q-14 -16 -21 -34.5t-7 -43.5q0 -27 8 -45t20 -29q-8 -6 -20 -10.5t-27 -4.5q-34 0 -52.5 19.5t-24.5 46.5h-73v-195h202q-2 -7 -4.5 -22.5
t-2.5 -33.5q0 -57 28 -83q-19 -16 -49 -16q-38 0 -58 24t-20 58v12.5t1 10.5h-97v-222q0 -113 -55.5 -180.5t-155.5 -67.5h-4q1 -6 1 -9v-7q0 -30 -19.5 -54t-53.5 -24z" />
    <glyph glyph-name="uni127C" unicode="&#x127c;" horiz-adv-x="621" 
d="M350 0q-43 9 -64.5 32.5t-21.5 70.5v367h-104q1 -5 1.5 -10.5t0.5 -12.5q0 -35 -20 -58.5t-58 -23.5q-30 0 -49 16q28 28 28 83q0 18 -3 33.5t-5 22.5h209v190h-76q-4 -26 -23.5 -46t-52.5 -20q-16 0 -28 5t-19 10q13 16 20 34.5t7 43.5q0 27 -8 45t-19 29q7 6 19 10.5
t28 4.5q33 0 52 -19.5t24 -46.5h246q4 26 23.5 46t53.5 20q15 0 27 -5t20 -10q-14 -16 -21 -34.5t-7 -43.5q0 -27 8 -45t20 -29q-8 -6 -20 -10.5t-27 -4.5q-34 0 -52.5 19.5t-24.5 46.5h-71v-190h199q-2 -7 -4.5 -22.5t-2.5 -33.5q0 -57 28 -83q-19 -16 -49 -16
q-38 0 -58 23.5t-20 58.5v12.5t1 10.5h-94v-267h91q119 0 119 -88q0 -47 -33.5 -81t-97.5 -34h-92zM414 35q66 0 66 77q0 29 -14 42t-44 13h-59v-57q0 -42 13 -58.5t38 -16.5z" />
    <glyph glyph-name="uni127D" unicode="&#x127d;" horiz-adv-x="625" 
d="M112 231q-30 0 -49 16q28 28 28 83q0 18 -3 33.5t-5 22.5h220q4 25 6 45t2 31q0 30 -13 41t-40 11h-80v194h-136q2 10 2 31q0 28 -8 47t-21 31q10 8 22.5 12t26.5 4q33 0 53 -20.5t24 -52.5h191q4 26 23.5 45.5t52.5 19.5q17 0 28.5 -4.5t18.5 -11.5q-13 -16 -20 -33.5
t-7 -42.5q0 -47 27 -75q-7 -7 -18.5 -12t-27.5 -5q-32 0 -50.5 17.5t-26.5 49.5h-56v-142h62q39 0 56 -19t17 -51q0 -12 -3.5 -41.5t-9.5 -68.5h192q-2 -7 -4.5 -22.5t-2.5 -33.5q0 -57 28 -83q-19 -16 -49 -16q-38 0 -58 23.5t-20 58.5v12.5t1 10.5h-94q-8 -49 -15 -98
t-12 -87t-5 -53q0 -54 47 -54v-40l-120 -9q-14 11 -20.5 28.5t-6.5 46.5q0 21 6 65t14.5 97.5t16.5 103.5h-108q1 -5 1.5 -10.5t0.5 -12.5q0 -35 -20 -58.5t-58 -23.5z" />
    <glyph glyph-name="uni127E" unicode="&#x127e;" horiz-adv-x="586" 
d="M72 258q-30 0 -49 16q28 28 28 83q0 18 -3 33.5t-5 22.5h209v50q0 17 4 32.5t14 27.5q-44 7 -75 33.5t-31 88.5q0 51 23 81h-46q-5 -27 -23.5 -47t-54.5 -20q-15 0 -28 5t-20 11q11 11 19 29t8 45q0 25 -7 43.5t-20 34.5q7 5 20 9.5t28 4.5q36 0 54.5 -19.5t23.5 -45.5
h291q-1 5 -1.5 10.5t-0.5 12.5q0 35 21 58.5t61 23.5q31 0 52 -16q-29 -27 -29 -83q0 -18 2.5 -33.5t5.5 -22.5h-126q20 -28 20 -75q0 -37 -10 -59.5t-25.5 -37.5t-32.5 -31q-13 -13 -17 -24t-4 -34v-52h202q-2 -7 -4.5 -22.5t-2.5 -33.5q0 -57 28 -83q-19 -16 -49 -16
q-38 0 -58 24t-20 58v12.5t1 10.5h-97v-253q0 -40 11 -53.5t31 -13.5v-39l-113 -9q-11 13 -18 31t-7 47v290h-104q1 -5 1.5 -10.5t0.5 -12.5q0 -34 -20 -58t-58 -24zM309 557q18 16 30.5 35.5t12.5 57.5q0 40 -14 57t-37 17q-22 0 -37 -18.5t-15 -59.5q0 -44 16.5 -64
t43.5 -25z" />
    <glyph glyph-name="uni127F" unicode="&#x127f;" horiz-adv-x="613" 
d="M79 -105q-30 0 -49 16q28 28 28 83q0 18 -3 33.5t-5 22.5h212q-2 10 -2 23v388h-100q1 -5 1.5 -10.5t0.5 -12.5q0 -34 -20 -58t-58 -24q-30 0 -49 16q28 28 28 83q0 18 -3 33.5t-5 22.5h205v199h-76q-4 -26 -23.5 -46t-52.5 -20q-16 0 -28 5t-19 10q13 16 20 34.5t7 43.5
q0 27 -8 45t-19 29q7 6 19 10.5t28 4.5q33 0 52 -19.5t24 -46.5h246q4 26 23.5 46t53.5 20q15 0 27 -5t20 -10q-14 -16 -21 -34.5t-7 -43.5q0 -27 8 -45t20 -29q-8 -6 -20 -10.5t-27 -4.5q-34 0 -52.5 19.5t-24.5 46.5h-71v-199h203q-2 -7 -4.5 -22.5t-2.5 -33.5
q0 -57 28 -83q-19 -16 -49 -16q-38 0 -58 24t-20 58v12.5t1 10.5h-98v-344q0 -41 11 -54t31 -13h156q-2 -7 -4.5 -22.5t-2.5 -33.5q0 -57 28 -83q-19 -16 -49 -16q-38 0 -58 23.5t-20 58.5v12.5t1 10.5h-297q1 -5 1.5 -10.5t0.5 -12.5q0 -35 -20 -58.5t-58 -23.5z" />
    <glyph glyph-name="uni1280" unicode="&#x1280;" horiz-adv-x="522" 
d="M331 -5q-14 11 -21 28.5t-7 46.5q0 20 5.5 56.5t13 80.5t15.5 87.5t13.5 79t5.5 53.5q0 29 -13 40t-40 11h-80v129q0 34 -10 48t-30 14v40l113 9q14 -12 19.5 -32t5.5 -51v-104h62q39 0 55.5 -19.5t16.5 -51.5q0 -14 -5 -50t-13 -82t-15.5 -93t-12.5 -84t-5 -53
q0 -54 47 -54v-40zM57 463q-31 0 -52 16q29 27 29 83q0 18 -2.5 33.5t-5.5 22.5h240v-50h-129q1 -5 1.5 -10.5t0.5 -12.5q0 -35 -21 -58.5t-61 -23.5z" />
    <glyph glyph-name="uni1281" unicode="&#x1281;" horiz-adv-x="664" 
d="M331 -5q-14 11 -21 28.5t-7 46.5q0 20 5.5 56.5t13 80.5t15.5 87.5t13.5 79t5.5 53.5q0 29 -13 40t-40 11h-80v129q0 34 -10 48t-30 14v40l113 9q14 -12 19.5 -32t5.5 -51v-104h62q39 0 55.5 -19.5t16.5 -51.5q0 -14 -5 -50t-13 -82t-15.5 -93t-12.5 -84t-5 -53
q0 -54 47 -54v-40zM57 463q-31 0 -52 16q29 27 29 83q0 18 -2.5 33.5t-5.5 22.5h240v-50h-129q1 -5 1.5 -10.5t0.5 -12.5q0 -35 -21 -58.5t-61 -23.5zM597 160q-41 0 -61.5 23.5t-20.5 58.5q0 7 0.5 12.5t1.5 10.5h-129v50h240q-3 -7 -5.5 -22.5t-2.5 -33.5q0 -56 29 -83
q-21 -16 -52 -16z" />
    <glyph glyph-name="uni1282" unicode="&#x1282;" horiz-adv-x="651" 
d="M331 0q-11 10 -18.5 25.5t-7.5 44.5q0 20 5.5 56.5t13 80.5t15 87.5t13 79t5.5 53.5q0 29 -13 40t-40 11h-80v129q0 34 -10 48t-30 14v40l113 9q14 -12 19.5 -32t5.5 -51v-104h62q39 0 55.5 -19.5t16.5 -51.5q0 -14 -5 -50t-13 -82t-15.5 -93t-12.5 -84t-5 -53
q0 -22 11 -35t36 -13h59q5 26 23 45.5t54 19.5q16 0 29 -4.5t19 -9.5q-14 -16 -20.5 -34.5t-6.5 -43.5q0 -27 8.5 -45t18.5 -29q-6 -6 -19 -11t-29 -5q-36 0 -54 20t-23 47h-180zM57 452q-31 0 -52 16q29 27 29 83q0 18 -2.5 33.5t-5.5 22.5h240v-50h-129q1 -5 1.5 -10.5
t0.5 -12.5q0 -35 -21 -58.5t-61 -23.5z" />
    <glyph glyph-name="uni1283" unicode="&#x1283;" horiz-adv-x="524" 
d="M143 -99q-15 0 -25 3.5t-18 7.5q19 32 19 86q0 14 -1.5 25t-3.5 20h59q89 0 133.5 55t44.5 180v149q0 29 -13 40t-39 11h-81v74h-81q1 -5 1.5 -10.5t0.5 -12.5q0 -35 -21 -58.5t-61 -23.5q-31 0 -52 16q29 27 29 83q0 18 -2.5 33.5t-5.5 22.5h192v5q0 34 -10 48t-30 14
v40l114 9q14 -12 19 -32t5 -51v-104h62q40 0 56.5 -19.5t16.5 -51.5v-187q0 -90 -30 -152t-82.5 -94t-119.5 -32h-4q1 -6 1 -9v-7q0 -30 -19 -54t-54 -24z" />
    <glyph glyph-name="uni1284" unicode="&#x1284;" horiz-adv-x="608" 
d="M369 0q-43 8 -69 36t-26 84q0 37 11.5 74t28.5 83l18 48q11 28 20.5 55.5t9.5 52.5t-14.5 35t-41.5 10h-80v129q0 34 -10 48t-30 14v40l113 9q14 -12 19.5 -32t5.5 -51v-104h53q46 0 65 -24.5t19 -56.5q0 -34 -11.5 -73t-33.5 -94l-23 -61h63q134 0 134 -96
q0 -52 -34 -89t-98 -37h-89zM430 35q67 0 67 87q0 33 -18 47.5t-54 14.5h-44q-5 -14 -8.5 -31.5t-3.5 -36.5q0 -44 17 -62.5t44 -18.5zM57 459q-31 0 -52 16q29 27 29 83q0 18 -2.5 33.5t-5.5 22.5h240v-50h-129q1 -5 1.5 -10.5t0.5 -12.5q0 -35 -21 -58.5t-61 -23.5z" />
    <glyph glyph-name="uni1285" unicode="&#x1285;" horiz-adv-x="500" 
d="M42 305q-8 13 -14 35t-6 51q0 61 24.5 107.5t65 77t90.5 43.5q-2 27 -12 38.5t-28 11.5v40l113 9q14 -12 19.5 -32t5.5 -51v-104h62q39 0 55.5 -19.5t16.5 -51.5q0 -14 -5 -50t-13 -82t-15.5 -93t-12.5 -84t-5 -53q0 -54 47 -54v-40l-120 -9q-14 11 -21 28.5t-7 46.5
q0 20 5.5 56.5t13 80.5t15.5 87.5t13.5 79t5.5 53.5q0 29 -13 40t-40 11h-80v91q-40 -15 -64 -55.5t-24 -97.5q0 -28 10 -45t36 -17v-40z" />
    <glyph glyph-name="uni1286" unicode="&#x1286;" horiz-adv-x="711" 
d="M452 -4q-21 28 -21 98v94q0 50 -18 72.5t-62 22.5h-131v55q0 127 34.5 210.5t95.5 124.5t141 41h116q43 0 64.5 -26.5t21.5 -69.5q0 -48 -26 -84t-67 -36h-97q-32 0 -51.5 27.5t-19.5 67.5q0 46 20 76q-64 -20 -99.5 -98t-35.5 -212v-21h90q51 0 85 -27t34 -98v-93
q0 -44 12.5 -58.5t38.5 -14.5v-42zM555 533q27 0 42 24.5t15 59.5q0 26 -11.5 42.5t-33.5 16.5q-26 0 -41 -22t-15 -60q0 -27 12 -44t32 -17zM57 306q-31 0 -52 16q29 27 29 83q0 18 -2.5 33.5t-5.5 22.5h240v-50h-129q1 -5 1.5 -10.5t0.5 -12.5q0 -35 -21 -58.5t-61 -23.5z
" />
    <glyph glyph-name="uni1287" unicode="&#x1287;" horiz-adv-x="718" 
d="M230 -67q-15 0 -28 5t-20 11q11 11 19 29t8 45q0 25 -7 43.5t-20 34.5q7 5 20 9.5t28 4.5q36 0 54.5 -19.5t23.5 -45.5h130v138q0 50 -18 72.5t-61 22.5h-132v81q0 114 34.5 192t95.5 118t141 40h116q43 0 64.5 -26.5t21.5 -69.5q0 -48 -26 -84t-67 -36h-97
q-32 0 -51.5 27.5t-19.5 67.5q0 45 19 76q-63 -20 -98 -98.5t-35 -211.5v-21h89q54 0 87 -27t33 -98v-213h-226q-5 -27 -23.5 -47t-54.5 -20zM562 533q27 0 42 24.5t15 59.5q0 26 -11 42.5t-34 16.5q-25 0 -40.5 -22t-15.5 -60q0 -27 12 -44t32 -17zM57 306q-31 0 -52 16
q29 27 29 83q0 18 -2.5 33.5t-5.5 22.5h240v-50h-129q1 -5 1.5 -10.5t0.5 -12.5q0 -35 -21 -58.5t-61 -23.5z" />
    <glyph glyph-name="uni1288" unicode="&#x1288;" horiz-adv-x="800" 
d="M331 -5q-14 11 -21 28.5t-7 46.5q0 20 5.5 56.5t13 80.5t15.5 87.5t13.5 79t5.5 53.5q0 29 -13 40t-40 11h-80v129q0 34 -10 48t-30 14v40l113 9q14 -12 19.5 -32t5.5 -51v-104h62q39 0 55.5 -19.5t16.5 -51.5q0 -14 -5 -50t-13 -82t-15.5 -93t-12.5 -84t-5 -53
q0 -54 47 -54v-40zM57 463q-31 0 -52 16q29 27 29 83q0 18 -2.5 33.5t-5.5 22.5h240v-50h-129q1 -5 1.5 -10.5t0.5 -12.5q0 -35 -21 -58.5t-61 -23.5zM589 148q-38 0 -59 24.5t-21 62.5q0 19 4 34h-114v50h142q30 27 88 27h70q93 0 93 -87q0 -44 -28 -77.5t-72 -33.5h-103z
M643 185q32 0 48 21t16 51q0 24 -13 38t-38 14q-29 0 -46 -18.5t-17 -52.5q0 -23 13 -38t37 -15z" />
    <glyph glyph-name="uni128A" unicode="&#x128a;" horiz-adv-x="806" 
d="M331 -5q-14 11 -21 28.5t-7 46.5q0 20 5.5 56.5t13 80.5t15.5 87.5t13.5 79t5.5 53.5q0 29 -13 40t-40 11h-80v129q0 34 -10 48t-30 14v40l113 9q14 -12 19.5 -32t5.5 -51v-104h62q39 0 55.5 -19.5t16.5 -51.5q0 -14 -5 -50t-13 -82t-15.5 -93t-12.5 -84t-5 -53
q0 -54 47 -54v-40zM57 463q-31 0 -52 16q29 27 29 83q0 18 -2.5 33.5t-5.5 22.5h240v-50h-129q1 -5 1.5 -10.5t0.5 -12.5q0 -35 -21 -58.5t-61 -23.5zM537 199v84h-138v50h138v103h79v-187h154q-3 -7 -5.5 -22.5t-2.5 -33.5q0 -56 29 -83q-21 -16 -52 -16q-40 0 -61 23.5
t-21 58.5q0 7 0.5 12.5t1.5 10.5h-122z" />
    <glyph glyph-name="uni128B" unicode="&#x128b;" horiz-adv-x="609" 
d="M112 42q-31 0 -52 16q29 27 29 83q0 18 -2.5 33.5t-5.5 22.5h246q-2 12 -2 26t5 42.5t11.5 61t11.5 60t5 40.5q0 29 -13 40t-40 11h-80v90h-88q1 -5 1.5 -10.5t0.5 -12.5q0 -35 -21 -58.5t-61 -23.5q-31 0 -52 16q29 27 29 83q0 18 -2.5 33.5t-5.5 22.5h199
q-2 28 -12 39.5t-28 11.5v40l114 9q13 -12 18.5 -32t5.5 -51v-104h62q39 0 56 -19.5t17 -51.5q0 -10 -5 -39t-11.5 -64t-11.5 -64.5t-5 -41.5q0 -26 10.5 -40t36.5 -14h82v-91q0 -34 10 -48t30 -14v-40l-104 -9q-14 12 -19 32t-5 51v69h-274q1 -5 1.5 -10.5t0.5 -12.5
q0 -34 -21 -58t-61 -24z" />
    <glyph glyph-name="uni128C" unicode="&#x128c;" horiz-adv-x="608" 
d="M142 -105q-31 0 -52 16q29 27 29 83q0 18 -2.5 33.5t-5.5 22.5h179q-16 28 -16 70q0 37 11.5 74t28.5 83l18 48q11 28 20.5 55.5t9.5 52.5t-14.5 35t-41.5 10h-80v86h-89q1 -5 1.5 -10.5t0.5 -12.5q0 -35 -21 -58.5t-61 -23.5q-31 0 -52 16q29 27 29 83q0 18 -2.5 33.5
t-5.5 22.5h200q-1 30 -11.5 42.5t-28.5 12.5v40l113 9q14 -12 19.5 -32t5.5 -51v-104h53q46 0 65 -24.5t19 -56.5q0 -34 -11.5 -73t-33.5 -94l-23 -61h63q134 0 134 -96q0 -52 -34 -89t-98 -37h-236q1 -5 1.5 -10.5t0.5 -12.5q0 -35 -21 -58.5t-61 -23.5zM430 35q67 0 67 87
q0 33 -18 47.5t-54 14.5h-44q-5 -14 -8.5 -31.5t-3.5 -36.5q0 -44 17 -62.5t44 -18.5z" />
    <glyph glyph-name="uni128D" unicode="&#x128d;" horiz-adv-x="780" 
d="M331 -5q-14 11 -21 28.5t-7 46.5q0 20 5.5 56.5t13 80.5t15.5 87.5t13.5 79t5.5 53.5q0 29 -13 40t-40 11h-80v129q0 34 -10 48t-30 14v40l113 9q14 -12 19.5 -32t5.5 -51v-104h62q39 0 55.5 -19.5t16.5 -51.5q0 -14 -5 -50t-13 -82t-15.5 -93t-12.5 -84t-5 -53
q0 -54 47 -54v-40zM57 463q-31 0 -52 16q29 27 29 83q0 18 -2.5 33.5t-5.5 22.5h240v-50h-129q1 -5 1.5 -10.5t0.5 -12.5q0 -35 -21 -58.5t-61 -23.5zM412 270v50h116v177h78v-177h138q-3 -7 -5.5 -22.5t-2.5 -33.5q0 -56 29 -83q-21 -16 -52 -16q-41 0 -61.5 23.5
t-20.5 58.5q0 7 0.5 12.5t1.5 10.5h-221z" />
    <glyph glyph-name="uni1290" unicode="&#x1290;" horiz-adv-x="354" 
d="M164 -5q-14 11 -21 28.5t-7 46.5q0 20 5.5 56.5t13 80.5t15.5 87.5t13.5 79t5.5 53.5q0 29 -13 40t-40 11h-80v129q0 34 -10 48t-30 14v40l113 9q14 -12 19.5 -32t5.5 -51v-104h62q39 0 55.5 -19.5t16.5 -51.5q0 -14 -5 -50t-13 -82t-15.5 -93t-12.5 -84t-5 -53
q0 -54 47 -54v-40z" />
    <glyph glyph-name="uni1291" unicode="&#x1291;" horiz-adv-x="502" 
d="M164 -5q-14 11 -21 28.5t-7 46.5q0 20 5.5 56.5t13 80.5t15.5 87.5t13.5 79t5.5 53.5q0 29 -13 40t-40 11h-80v129q0 34 -10 48t-30 14v40l113 9q14 -12 19.5 -32t5.5 -51v-104h62q39 0 55.5 -19.5t16.5 -51.5q0 -14 -5 -50t-13 -82t-15.5 -93t-12.5 -84t-5 -53
q0 -54 47 -54v-40zM445 182q-41 0 -61.5 23.5t-20.5 58.5q0 7 0.5 12.5t1.5 10.5h-129v50h240q-3 -7 -5.5 -22.5t-2.5 -33.5q0 -56 29 -83q-21 -16 -52 -16z" />
    <glyph glyph-name="uni1292" unicode="&#x1292;" horiz-adv-x="484" 
d="M163 0q-11 10 -18.5 25.5t-7.5 44.5q0 20 5.5 56.5t13 80.5t15 87.5t13 79t5.5 53.5q0 29 -13 40t-40 11h-80v129q0 34 -10 48t-30 14v40l113 9q14 -12 19.5 -32t5.5 -51v-104h62q39 0 55.5 -19.5t16.5 -51.5q0 -14 -5 -50t-13 -82t-15.5 -93t-12.5 -84t-5 -53
q0 -22 11 -35t36 -13h59q5 26 23 45.5t54 19.5q16 0 29 -4.5t19 -9.5q-14 -16 -20.5 -34.5t-6.5 -43.5q0 -27 8.5 -45t18.5 -29q-6 -6 -19 -11t-29 -5q-36 0 -54 20t-23 47h-180z" />
    <glyph glyph-name="uni1293" unicode="&#x1293;" horiz-adv-x="461" 
d="M262 -5q-12 13 -18 31t-6 47v111q0 50 -19.5 75t-62.5 25h-133v29q0 145 37 233.5t100.5 128t143.5 39.5h124q-3 -10 -5 -22t-2 -28q0 -56 25 -87q-8 -6 -20.5 -10t-26.5 -4q-41 0 -61.5 24t-20.5 57q0 4 0.5 9t1.5 11h-11q-51 0 -92.5 -32t-66.5 -105t-26 -196h86
q63 0 95 -33.5t32 -96.5v-91q0 -40 11.5 -53.5t32.5 -13.5v-39z" />
    <glyph glyph-name="uni1294" unicode="&#x1294;" horiz-adv-x="438" 
d="M199 0q-43 8 -69 36t-26 84q0 37 11.5 74t28.5 83l18 48q11 28 20.5 55.5t9.5 52.5t-14.5 35t-41.5 10h-80v129q0 34 -10 48t-30 14v40l113 9q14 -12 19.5 -32t5.5 -51v-104h53q46 0 65 -24.5t19 -56.5q0 -34 -11.5 -73t-33.5 -94l-23 -61h63q134 0 134 -96
q0 -52 -34 -89t-98 -37h-89zM260 35q67 0 67 87q0 33 -18 47.5t-54 14.5h-44q-5 -14 -8.5 -31.5t-3.5 -36.5q0 -44 17 -62.5t44 -18.5z" />
    <glyph glyph-name="uni1295" unicode="&#x1295;" horiz-adv-x="504" 
d="M314 -5q-14 11 -21 28.5t-7 46.5q0 20 5.5 56.5t13 80.5t15 87.5t13 79t5.5 53.5q0 29 -13 40t-39 11h-81v110q0 40 -14 58t-40 18h-11q1 -5 1.5 -10.5t0.5 -12.5q0 -35 -20 -58.5t-58 -23.5q-30 0 -49 16q28 28 28 83q0 18 -3 33.5t-5 22.5h154q61 0 87.5 -31t26.5 -84
v-68h62q40 0 56.5 -19.5t16.5 -51.5q0 -14 -5.5 -50t-13 -82t-15 -93t-13 -84t-5.5 -53q0 -54 47 -54v-40z" />
    <glyph glyph-name="uni1296" unicode="&#x1296;" horiz-adv-x="514" 
d="M255 -4q-21 28 -21 98v94q0 50 -18 72.5t-62 22.5h-131v55q0 127 34.5 210.5t95.5 124.5t141 41h116q43 0 64.5 -26.5t21.5 -69.5q0 -48 -26 -84t-67 -36h-97q-32 0 -51.5 27.5t-19.5 67.5q0 46 20 76q-64 -20 -99.5 -98t-35.5 -212v-21h90q51 0 85 -27t34 -98v-93
q0 -44 12.5 -58.5t38.5 -14.5v-42zM358 533q27 0 42 24.5t15 59.5q0 26 -11.5 42.5t-33.5 16.5q-26 0 -41 -22t-15 -60q0 -27 12 -44t32 -17z" />
    <glyph glyph-name="uni1297" unicode="&#x1297;" horiz-adv-x="600" 
d="M87 -105q-30 0 -49 16q28 28 28 83q0 18 -3 33.5t-5 22.5h222v132q0 54 -19.5 78t-61.5 24h-132v29q0 143 33.5 231.5t95.5 129t148 40.5h126q-3 -10 -5 -22t-2 -28q0 -56 25 -87q-8 -6 -20.5 -10t-26.5 -4q-41 0 -61.5 24t-20.5 57q0 4 0.5 9t1.5 11h-14
q-52 0 -92.5 -32.5t-64.5 -105t-25 -193.5h88q60 0 92 -33t32 -98v-152h188q-2 -7 -4.5 -22.5t-2.5 -33.5q0 -57 28 -83q-19 -16 -49 -16q-38 0 -58 23.5t-20 58.5v12.5t1 10.5h-297q1 -5 1.5 -10.5t0.5 -12.5q0 -35 -20 -58.5t-58 -23.5z" />
    <glyph glyph-name="uni1298" unicode="&#x1298;" horiz-adv-x="542" 
d="M322 -5q-13 11 -20 28.5t-7 46.5q0 20 5.5 55t13.5 77.5t15.5 85t13 76.5t5.5 52q0 28 -13.5 39t-40.5 11h-80v198h-76q-4 -26 -23.5 -46t-52.5 -20q-16 0 -28 5t-19 10q13 16 20 34.5t7 43.5q0 27 -8 45t-19 29q7 6 19 10.5t28 4.5q33 0 52 -19.5t24 -46.5h246
q4 26 23.5 46t53.5 20q15 0 27 -5t20 -10q-14 -16 -21 -34.5t-7 -43.5q0 -27 8 -45t20 -29q-8 -6 -20 -10.5t-27 -4.5q-34 0 -52.5 19.5t-24.5 46.5h-71v-144h61q40 0 56.5 -20t16.5 -52q0 -14 -5 -48.5t-12.5 -79t-15.5 -89.5t-13 -81t-5 -52q0 -54 47 -54v-40z" />
    <glyph glyph-name="uni1299" unicode="&#x1299;" horiz-adv-x="627" 
d="M322 -5q-13 11 -20 28.5t-7 46.5q0 20 5.5 55t13.5 77.5t15.5 85t13 76.5t5.5 52q0 28 -13.5 39t-40.5 11h-80v198h-76q-4 -26 -23.5 -46t-52.5 -20q-16 0 -28 5t-19 10q13 16 20 34.5t7 43.5q0 27 -8 45t-19 29q7 6 19 10.5t28 4.5q33 0 52 -19.5t24 -46.5h246
q4 26 23.5 46t53.5 20q15 0 27 -5t20 -10q-14 -16 -21 -34.5t-7 -43.5q0 -27 8 -45t20 -29q-8 -6 -20 -10.5t-27 -4.5q-34 0 -52.5 19.5t-24.5 46.5h-71v-144h61q40 0 56.5 -20t16.5 -52q0 -14 -5 -48.5t-12.5 -79t-15.5 -89.5t-13 -81t-5 -52q0 -54 47 -54v-40zM570 163
q-41 0 -61.5 23.5t-20.5 58.5q0 7 0.5 12.5t1.5 10.5h-129v50h240q-3 -7 -5.5 -22.5t-2.5 -33.5q0 -56 29 -83q-21 -16 -52 -16z" />
    <glyph glyph-name="uni129A" unicode="&#x129a;" horiz-adv-x="632" 
d="M319 0q-13 10 -20 28t-7 47q0 19 5.5 53.5t13 76.5t15.5 83.5t13.5 75.5t5.5 52q0 28 -13.5 39t-39.5 11h-81v198h-73q-4 -26 -23.5 -46t-52.5 -20q-16 0 -28 5t-19 10q13 16 20 34.5t7 43.5q0 27 -8 45t-19 29q7 6 19 10.5t28 4.5q33 0 52 -19.5t24 -46.5h246
q4 26 23.5 46t53.5 20q15 0 27 -5t20 -10q-14 -16 -21 -34.5t-7 -43.5q0 -27 8 -45t20 -29q-8 -6 -20 -10.5t-27 -4.5q-34 0 -52.5 19.5t-24.5 46.5h-74v-144h61q40 0 56.5 -20t16.5 -52q0 -14 -5 -48t-13 -78t-15.5 -88.5t-12.5 -80t-5 -51.5q0 -52 47 -52h51q5 26 23 45.5
t54 19.5q16 0 29 -4.5t19 -9.5q-14 -16 -20.5 -34.5t-6.5 -43.5q0 -27 8.5 -45t18.5 -29q-6 -6 -19 -11t-29 -5q-36 0 -54 20t-23 47h-172z" />
    <glyph glyph-name="uni129B" unicode="&#x129b;" horiz-adv-x="530" 
d="M264 -5q-10 13 -16.5 31t-6.5 47v66q0 85 -71 85h-133v26q0 114 47.5 193.5t139.5 105.5v115h-78q-4 -26 -23.5 -46t-52.5 -20q-16 0 -28 5t-19 10q13 16 20 34.5t7 43.5q0 27 -8 45t-19 29q7 6 19 10.5t28 4.5q33 0 52 -19.5t24 -46.5h246q4 26 23.5 46t53.5 20
q15 0 27 -5t20 -10q-14 -16 -21 -34.5t-7 -43.5q0 -27 8 -45t20 -29q-8 -6 -20 -10.5t-27 -4.5q-34 0 -52.5 19.5t-24.5 46.5h-77v-103h121q-7 -17 -7 -52q0 -57 25 -85q-8 -6 -21 -10t-28 -4q-38 0 -59 23.5t-21 56.5q0 6 0.5 11t1.5 10h-11q-54 0 -93.5 -31t-62 -85
t-23.5 -124h86q53 0 85 -28.5t32 -84.5v-48q0 -40 11.5 -53.5t32.5 -13.5v-39z" />
    <glyph glyph-name="uni129C" unicode="&#x129c;" horiz-adv-x="595" 
d="M356 0q-43 8 -66.5 40.5t-23.5 88.5q0 33 10.5 70t25.5 78l18 47q10 26 18.5 52.5t8.5 49.5q0 25 -13 35t-40 10h-81v193h-75q-4 -26 -23.5 -46t-52.5 -20q-16 0 -28 5t-19 10q13 16 20 34.5t7 43.5q0 27 -8 45t-19 29q7 6 19 10.5t28 4.5q33 0 52 -19.5t24 -46.5h246
q4 26 23.5 46t53.5 20q15 0 27 -5t20 -10q-14 -16 -21 -34.5t-7 -43.5q0 -27 8 -45t20 -29q-8 -6 -20 -10.5t-27 -4.5q-34 0 -52.5 19.5t-24.5 46.5h-72v-140h53q45 0 63.5 -23t18.5 -55q0 -33 -10.5 -70.5t-30.5 -91.5l-21 -62h75q61 0 89 -23.5t28 -72.5q0 -52 -33.5 -89
t-97.5 -37h-90zM417 35q68 0 68 87q0 33 -14.5 47.5t-45.5 14.5h-54q-5 -14 -8 -31.5t-3 -36.5q0 -44 15 -62.5t42 -18.5z" />
    <glyph glyph-name="uni129D" unicode="&#x129d;" horiz-adv-x="526" 
d="M340 -5q-12 11 -19.5 28.5t-7.5 46.5q0 17 6 47.5t14 64t14 62.5t6 44q0 29 -13 40t-40 11h-81v68q0 41 -14 58.5t-40 17.5h-10q0 -5 0.5 -10.5t0.5 -12.5q0 -34 -19.5 -58t-58.5 -24q-29 0 -48 16q27 27 27 83q0 18 -2.5 33.5t-4.5 22.5h122v131h-137q2 7 5 22.5t3 33.5
q0 55 -28 83q19 16 49 16q38 0 58 -23.5t20 -58.5v-12.5t-2 -10.5h160q0 5 -0.5 10.5t-0.5 12.5q0 35 19.5 58.5t57.5 23.5q31 0 49 -16q-27 -27 -27 -83q0 -18 2.5 -33.5t4.5 -22.5h-141v-143q28 -13 41 -39.5t13 -63.5v-26h61q41 0 57 -20t16 -51q0 -18 -6 -49.5
t-13.5 -67t-13.5 -64.5t-6 -42q0 -54 47 -54v-40z" />
    <glyph glyph-name="uni129E" unicode="&#x129e;" horiz-adv-x="549" 
d="M255 -4q-21 28 -21 91v37q0 34 -12.5 49.5t-42.5 15.5h-156v30q0 75 20.5 137.5t68 105t128.5 59.5v189h-79q-5 -26 -24 -46t-52 -20q-17 0 -28.5 5t-18.5 10q14 16 20.5 34.5t6.5 43.5q0 27 -8 45t-19 29q7 6 18.5 10.5t28.5 4.5q33 0 52 -19.5t24 -46.5h246q5 26 24 46
t53 20q15 0 27.5 -5t19.5 -10q-14 -16 -21 -34.5t-7 -43.5q0 -27 8 -45t20 -29q-7 -6 -19.5 -10.5t-27.5 -4.5q-34 0 -52.5 19.5t-24.5 46.5h-76v-180h8h106q43 0 64.5 -26.5t21.5 -69.5q0 -48 -26 -84t-67 -36h-97q-32 0 -51.5 27.5t-19.5 67.5t15 69q-58 -6 -94.5 -42
t-53.5 -87.5t-17 -104.5h130q39 0 59 -20t20 -75v-37q0 -38 12.5 -51.5t38.5 -13.5v-42zM393 349q27 0 42 24.5t15 59.5q0 26 -11 42.5t-34 16.5q-25 0 -40.5 -22t-15.5 -60q0 -27 12 -44t32 -17z" />
    <glyph glyph-name="uni129F" unicode="&#x129f;" horiz-adv-x="601" 
d="M88 -105q-30 0 -49 16q28 28 28 83q0 18 -3 33.5t-5 22.5h209q-2 13 -2 30v46q0 52 -22.5 75t-71.5 23h-122v26q0 114 47 193.5t139 105.5v161h-77q-5 -26 -24 -46t-52 -20q-17 0 -28.5 5t-18.5 10q14 16 20.5 34.5t6.5 43.5q0 27 -8 45t-19 29q7 6 18.5 10.5t28.5 4.5
q33 0 52 -19.5t24 -46.5h246q5 26 24 46t53 20q15 0 27.5 -5t19.5 -10q-14 -16 -21 -34.5t-7 -43.5q0 -27 8 -45t20 -29q-7 -6 -19.5 -10.5t-27.5 -4.5q-34 0 -52.5 19.5t-24.5 46.5h-77v-149h118q-2 -9 -3.5 -20t-1.5 -24q0 -25 5 -48.5t14 -38.5q-7 -4 -17.5 -7.5
t-24.5 -3.5q-34 0 -53.5 23t-19.5 53v7t1 9h-17q-55 0 -94.5 -31t-61.5 -85t-23 -124h75q65 0 102.5 -30.5t37.5 -95.5v-28q0 -41 11.5 -54t32.5 -13h157q-2 -7 -4.5 -22.5t-2.5 -33.5q0 -57 28 -83q-19 -16 -49 -16q-38 0 -58 23.5t-20 58.5v12.5t1 10.5h-297
q1 -5 1.5 -10.5t0.5 -12.5q0 -35 -20 -58.5t-58 -23.5z" />
    <glyph glyph-name="uni12A0" unicode="&#x12a0;" horiz-adv-x="511" 
d="M88 -5q-8 17 -12.5 33t-4.5 38q0 28 7 59.5t21 72.5l47 146q8 27 16 51.5t8 46.5q0 20 -11 28.5t-36 8.5h-51v114q0 41 -9 57.5t-39 16.5v42l126 9q10 -16 14 -36t4 -49v-97h35q30 0 48.5 -19t18.5 -51q0 -30 -18 -89q69 -15 104 -44t50 -78.5t25 -125.5q7 -51 19 -69
t38 -18v-38l-119 -9q-13 17 -20 40t-11 59q-9 71 -17.5 119t-27 76t-56.5 40v-1l-45 -145q-11 -37 -16 -58t-5 -37q0 -26 11.5 -36t28.5 -10v-38z" />
    <glyph glyph-name="uni12A1" unicode="&#x12a1;" horiz-adv-x="650" 
d="M88 -5q-8 17 -12.5 33t-4.5 38q0 28 7 59.5t21 72.5l47 146q8 27 16 51.5t8 46.5q0 20 -11 28.5t-36 8.5h-51v114q0 41 -9 57.5t-39 16.5v42l126 9q10 -16 14 -36t4 -49v-97h35q30 0 48.5 -19t18.5 -51q0 -30 -18 -89q69 -15 104 -44t50 -78.5t25 -125.5q7 -51 19 -69
t38 -18v-38l-119 -9q-13 17 -20 40t-11 59q-9 71 -17.5 119t-27 76t-56.5 40v-1l-45 -145q-11 -37 -16 -58t-5 -37q0 -26 11.5 -36t28.5 -10v-38zM583 107q-41 0 -61.5 23.5t-20.5 58.5q0 7 0.5 12.5t1.5 10.5h-129v50h240q-3 -7 -5.5 -22.5t-2.5 -33.5q0 -56 29 -83
q-21 -16 -52 -16z" />
    <glyph glyph-name="uni12A2" unicode="&#x12a2;" horiz-adv-x="656" 
d="M87 -5q-8 17 -12.5 33t-4.5 38q0 28 7 60t21 73l46 145q9 27 17 51.5t8 46.5q0 20 -10.5 28.5t-36.5 8.5h-52v114q0 41 -9 57.5t-39 16.5v42l126 9q10 -16 14 -36t4 -49v-97h35q30 0 48.5 -19t18.5 -51q0 -30 -18 -89q67 -15 102 -44t50.5 -78.5t24.5 -125.5
q6 -47 19 -63t38 -16h31q5 26 23 45.5t54 19.5q16 0 29 -4.5t19 -9.5q-14 -16 -20.5 -34.5t-6.5 -43.5q0 -27 8.5 -45t18.5 -29q-6 -6 -19 -11t-29 -5q-36 0 -54 20t-23 47h-149q-10 16 -18 36.5t-12 56.5q-9 71 -17.5 119t-27 76.5t-56.5 40.5v-1l-45 -145
q-12 -37 -16.5 -58t-4.5 -37q0 -26 11.5 -36t28.5 -10v-38z" />
    <glyph glyph-name="uni12A3" unicode="&#x12a3;" horiz-adv-x="508" 
d="M99 135q-7 17 -10 32t-3 35q0 24 11 55t34 80q21 43 30.5 67t9.5 42t-11.5 25.5t-36.5 7.5h-51v114q0 41 -9 57.5t-39 16.5v42l126 9q10 -16 14 -36t4 -49v-97h30q33 0 55 -18t22 -51q0 -20 -6.5 -41t-19.5 -50q52 -12 84.5 -31t50.5 -48t28 -70.5t17 -97.5q7 -51 19 -69
t38 -18v-38l-120 -9q-12 17 -18.5 39.5t-11.5 58.5q-9 68 -17.5 115t-28.5 76.5t-62 44.5q-3 -5 -5 -11q-20 -44 -28 -64t-8 -36q0 -19 11 -27.5t28 -8.5v-38z" />
    <glyph glyph-name="uni12A4" unicode="&#x12a4;" horiz-adv-x="661" 
d="M87 -5q-8 17 -12.5 33t-4.5 38q0 28 7 60t21 73l46 145q9 27 17 51.5t8 46.5q0 20 -10.5 28.5t-36.5 8.5h-52v114q0 41 -9 57.5t-39 16.5v42l126 9q10 -16 14 -36t4 -49v-97h35q30 0 48.5 -19t18.5 -51q0 -16 -4.5 -37t-12.5 -52q76 -17 110.5 -53t50.5 -102h112
q119 0 119 -96q0 -52 -33.5 -89t-98.5 -37h-130q-17 12 -29.5 38t-17.5 69q-8 66 -16 111t-26.5 71.5t-57.5 39.5l-44 -146q-12 -37 -16.5 -58t-4.5 -37q0 -26 11.5 -36t28.5 -10v-38zM489 37q62 0 62 85q0 33 -14.5 47.5t-45.5 14.5h-73q3 -13 5 -28.5t6 -42.5
q5 -39 18.5 -57.5t41.5 -18.5z" />
    <glyph glyph-name="uni12A5" unicode="&#x12a5;" horiz-adv-x="488" 
d="M71 -5q-19 35 -19 79q0 28 7.5 61.5t18.5 66.5l86 251h-77l36 102h-78l18 50q10 29 1.5 45.5t-36.5 16.5v42l120 9q9 -10 10.5 -31t-6.5 -43l-11 -33h74v-32l-24 -69h78v-37l-33 -96q66 -15 100 -44.5t48.5 -78.5t24.5 -125q7 -51 19 -69t38 -18v-38l-118 -9
q-12 17 -19 39.5t-11 58.5q-9 71 -17.5 119t-26.5 76t-57 41l-48 -145q-11 -33 -15 -54t-4 -37q0 -29 13 -40t30 -11v-38z" />
    <glyph glyph-name="uni12A6" unicode="&#x12a6;" horiz-adv-x="515" 
d="M97 -5q-9 17 -13 33t-4 38q0 28 7 59.5t21 73.5l47 145q8 27 16 51.5t8 46.5q0 20 -10.5 28.5t-36.5 8.5h-52v114q0 41 -9 57.5t-39 16.5v42l126 9q10 -16 14 -36t4 -49v-97h34q31 0 49.5 -19t18.5 -51q0 -17 -4.5 -37.5t-13.5 -50.5q63 -5 100 -23.5t57 -49t30 -73.5
q5 -25 15 -37.5t36 -12.5v-38l-120 -9q-9 11 -14.5 28.5t-9.5 35.5q-6 40 -17 66.5t-32 42t-60 21.5v-1l-45 -145q-12 -37 -16.5 -58t-4.5 -37q0 -26 11.5 -36t28.5 -10v-38z" />
    <glyph glyph-name="uni12A7" unicode="&#x12a7;" horiz-adv-x="623" 
d="M201 -5q-8 17 -12.5 33t-4.5 38q0 28 7 59.5t21 73.5l47 145q9 27 16.5 51.5t7.5 46.5q0 20 -10.5 28.5t-35.5 8.5h-53v188h-44q-8 -31 -26 -49t-51 -18q-15 0 -27 5t-20 12q12 11 20 28.5t8 45.5q0 25 -7 43t-21 34q10 9 22.5 12.5t25.5 3.5q34 0 53 -20t23 -45h192
q4 25 23 45t53 20q17 0 28.5 -4.5t18.5 -11.5q-13 -16 -20.5 -33.5t-7.5 -42.5q0 -47 28 -75q-7 -7 -19 -12t-28 -5q-32 0 -50.5 18t-25.5 49h-52v-131h35q31 0 49 -19t18 -51q0 -30 -18 -89q68 -15 103 -44t51 -78.5t26 -125.5q7 -51 19.5 -69t37.5 -18v-38l-120 -9
q-12 17 -19 39.5t-11 58.5q-9 71 -17.5 119t-27 76.5t-57.5 40.5v-1l-45 -145q-11 -37 -16 -58t-5 -37q0 -26 11.5 -36t28.5 -10v-38z" />
    <glyph glyph-name="uni12A8" unicode="&#x12a8;" horiz-adv-x="617" 
d="M151 -5q-11 15 -16 41t-5 57v231q0 53 9.5 96.5t27.5 77.5q-24 -4 -42 -4q-28 0 -39 16.5t-11 47.5v106q0 54 -38 54v42l109 8q10 -10 16 -27t6 -52v-82q0 -24 8 -38.5t30 -16.5q61 61 159 61q93 0 130 -57.5t37 -169.5q0 -32 -1 -80t-1.5 -98.5t-0.5 -88.5
q0 -44 12 -58.5t38 -14.5v-42l-130 -9q-11 15 -16 38.5t-5 59.5q0 69 1.5 148.5t1.5 151.5q0 86 -18.5 129t-61.5 43q-56 0 -88.5 -61t-32.5 -205v-180q0 -44 12.5 -58.5t38.5 -14.5v-42z" />
    <glyph glyph-name="uni12A9" unicode="&#x12a9;" horiz-adv-x="739" 
d="M151 -5q-11 15 -16 41t-5 57v231q0 53 9.5 96.5t27.5 77.5q-24 -4 -42 -4q-28 0 -39 16.5t-11 47.5v106q0 54 -38 54v42l109 8q10 -10 16 -27t6 -52v-82q0 -24 8 -38.5t30 -16.5q61 61 159 61q93 0 130 -57.5t37 -169.5q0 -32 -1 -80t-1.5 -98.5t-0.5 -88.5
q0 -44 12 -58.5t38 -14.5v-42l-130 -9q-11 15 -16 38.5t-5 59.5q0 69 1.5 148.5t1.5 151.5q0 86 -18.5 129t-61.5 43q-56 0 -88.5 -61t-32.5 -205v-180q0 -44 12.5 -58.5t38.5 -14.5v-42zM686 221q-36 0 -54 20t-23 47h-125v50h125q5 26 23 45.5t54 19.5q16 0 29 -4.5
t19 -9.5q-14 -16 -20.5 -34.5t-6.5 -43.5q0 -27 8.5 -45t18.5 -29q-6 -6 -19 -11t-29 -5z" />
    <glyph glyph-name="uni12AA" unicode="&#x12aa;" horiz-adv-x="723" 
d="M125 494q-28 0 -39 16.5t-11 47.5v106q0 54 -38 54v42l109 8q10 -10 16 -27t6 -52v-82q0 -24 7.5 -38t28.5 -17q60 61 158 61q94 0 130.5 -57.5t36.5 -169.5q0 -32 -1 -79t-1.5 -96.5t-0.5 -87.5q0 -44 12.5 -58.5t38.5 -14.5h5q4 26 23 45.5t55 19.5q15 0 28 -4.5
t20 -9.5q-14 -16 -21 -34.5t-7 -43.5q0 -27 8.5 -45t19.5 -29q-7 -6 -20 -11t-28 -5q-36 0 -54.5 20t-23.5 47h-135q-12 15 -16.5 38.5t-4.5 59.5q0 69 1 146t1 149q0 86 -18 129t-62 43q-56 0 -88 -61t-32 -205v-180q0 -44 12 -58.5t38 -14.5v-42l-130 -9q-11 15 -15.5 41
t-4.5 57v231q0 53 9.5 96.5t26.5 77.5q-22 -4 -39 -4z" />
    <glyph glyph-name="uni12AB" unicode="&#x12ab;" horiz-adv-x="629" 
d="M461 -4q-21 28 -21 98q0 46 1 100.5t1.5 111t0.5 107.5q0 83 -20.5 117.5t-64.5 34.5q-56 0 -86 -44.5t-30 -144.5v-33q0 -37 12.5 -50t39.5 -13v-42l-131 -9q-11 15 -16 41t-5 57v53q0 67 26 118q-24 -4 -43 -4q-28 0 -39 16.5t-11 47.5v106q0 54 -38 54v42l109 8
q10 -10 16 -27t6 -52v-82q0 -24 8 -38.5t30 -16.5q30 29 72 45t94 16q92 0 132 -51.5t40 -151.5q0 -27 -0.5 -65t-1 -79t-1 -79.5t-0.5 -66.5q0 -44 12 -58.5t39 -14.5v-42z" />
    <glyph glyph-name="uni12AC" unicode="&#x12ac;" horiz-adv-x="756" 
d="M145 -4q-11 15 -16 40.5t-5 57.5v221q0 56 10 101.5t28 80.5q-20 -3 -37 -3q-28 0 -39 16.5t-11 47.5v106q0 54 -38 54v42l109 8q10 -10 16 -27t6 -52v-82q0 -23 7 -37.5t27 -17.5q61 60 157 60q94 0 130.5 -57t36.5 -170q0 -19 -1 -51t-1.5 -63t-0.5 -49h95
q120 0 120 -96q0 -52 -34 -89t-99 -37h-119q-30 7 -47 27t-17 56q0 43 0.5 90t0.5 90.5t0.5 77.5t0.5 51q0 86 -18 129t-61 43q-37 0 -64.5 -27t-42 -87t-14.5 -160v-170q0 -44 12.5 -58.5t38.5 -14.5v-42zM578 35q67 0 67 87q0 33 -14.5 47.5t-44.5 14.5h-63v-94
q0 -32 14 -43.5t41 -11.5z" />
    <glyph glyph-name="uni12AD" unicode="&#x12ad;" horiz-adv-x="615" 
d="M149 -5q-11 15 -16 41t-5 57v76q0 59 20.5 95.5t49.5 55.5h-70q0 55 9.5 99.5t26.5 78.5q-22 -4 -39 -4q-28 0 -39 16.5t-11 47.5v106q0 54 -38 54v42l109 8q10 -10 16 -27t6 -52v-82q0 -23 7 -37.5t28 -17.5q30 31 70.5 46t88.5 15q94 0 131 -57.5t37 -169.5
q0 -32 -1 -80t-1.5 -98.5t-0.5 -88.5q0 -44 12 -58.5t38 -14.5v-42l-129 -9q-12 15 -16.5 38.5t-4.5 59.5q0 69 1 148.5t1 151.5q0 86 -18.5 129t-61.5 43q-56 0 -88 -54.5t-32 -150.5h99v-31q-55 -10 -77 -47t-22 -100v-63q0 -44 12 -58.5t38 -14.5v-42z" />
    <glyph glyph-name="uni12AE" unicode="&#x12ae;" horiz-adv-x="602" 
d="M150 -4q-11 15 -16 40.5t-5 57.5v237q0 51 9 92.5t25 73.5q-21 -3 -38 -3q-28 0 -39 16.5t-11 47.5v106q0 54 -38 54v42l109 8q10 -10 16 -27t6 -52v-82q0 -23 7 -37.5t27 -17.5q31 31 72 46t90 15q62 0 98.5 -23.5t52 -62.5t15.5 -87q0 -14 -1 -40t-1 -38
q0 -44 12 -58.5t38 -14.5v-42l-130 -9q-12 15 -16.5 38.5t-4.5 59.5q0 8 0.5 24.5t0.5 35v30.5q0 62 -17 100.5t-61 38.5q-38 0 -65 -24.5t-41.5 -81.5t-14.5 -153v-186q0 -44 12.5 -58.5t38.5 -14.5v-42z" />
    <glyph glyph-name="uni12AF" unicode="&#x12af;" horiz-adv-x="704" 
d="M253 -4q-11 15 -16 40.5t-5 57.5v237q0 51 9 92.5t25 73.5q-21 -3 -38 -3q-28 0 -39 16.5t-11 47.5v106q0 54 -38 54v42l109 8q10 -10 16 -27t6 -52v-82q0 -23 7 -37.5t27 -17.5q31 31 72 46t90 15q62 0 98.5 -23.5t52 -62.5t15.5 -87q0 -14 -1 -40t-1 -38
q0 -44 12 -58.5t38 -14.5v-42l-130 -9q-12 15 -16.5 38.5t-4.5 59.5q0 8 0.5 24.5t0.5 35v30.5q0 62 -17 100.5t-61 38.5q-38 0 -65 -24.5t-41.5 -81.5t-14.5 -153v-186q0 -44 12.5 -58.5t38.5 -14.5v-42zM63 186q-15 0 -28 5t-20 11q11 11 19 29t8 45q0 25 -7 43.5
t-20 34.5q7 5 20 9.5t28 4.5q36 0 54.5 -19.5t23.5 -45.5h124v-50h-124q-5 -27 -23.5 -47t-54.5 -20z" />
    <glyph glyph-name="uni12B0" unicode="&#x12b0;" horiz-adv-x="920" 
d="M151 -5q-11 15 -16 41t-5 57v231q0 53 9.5 96.5t27.5 77.5q-24 -4 -42 -4q-28 0 -39 16.5t-11 47.5v106q0 54 -38 54v42l109 8q10 -10 16 -27t6 -52v-82q0 -24 8 -38.5t30 -16.5q61 61 159 61q93 0 130 -57.5t37 -169.5q0 -32 -1 -80t-1.5 -98.5t-0.5 -88.5
q0 -44 12 -58.5t38 -14.5v-42l-130 -9q-11 15 -16 38.5t-5 59.5q0 69 1.5 148.5t1.5 151.5q0 86 -18.5 129t-61.5 43q-56 0 -88.5 -61t-32.5 -205v-180q0 -44 12.5 -58.5t38.5 -14.5v-42zM706 219q-37 0 -58 28t-21 72q0 18 3 34h-152v50h170q15 22 39.5 34t59.5 12h73
q47 0 69.5 -27t22.5 -76q0 -33 -12.5 -62t-35 -47t-51.5 -18h-107zM762 254q32 0 48.5 26.5t16.5 64.5q0 31 -13.5 48.5t-38.5 17.5q-29 0 -46 -24t-17 -66q0 -30 13 -48.5t37 -18.5z" />
    </font>
</defs>
</svg>
